<?xml version="1.0" encoding="utf-8"?>
<!-- Generator: Adobe Illustrator 23.1.0, SVG Export Plug-In . SVG Version: 6.00 Build 0)  -->
<svg version="1.1" id="Ebene_1" xmlns="http://www.w3.org/2000/svg" xmlns:xlink="http://www.w3.org/1999/xlink" x="0px" y="0px"
	 viewBox="0 0 201.8 221.7" style="enable-background:new 0 0 201.8 221.7;" xml:space="preserve">
<style type="text/css">
	.st0{filter:url(#Adobe_OpacityMaskFilter);}
	.st1{mask:url(#SVGID_1_);}
	.st2{fill:#969696;}
	.st3{fill:#C7917A;}
</style>
<g>
	<g>
		<defs>
			<filter id="Adobe_OpacityMaskFilter" filterUnits="userSpaceOnUse" x="8.7" y="188.7" width="184.6" height="33">
				<feColorMatrix  type="matrix" values="1 0 0 0 0  0 1 0 0 0  0 0 1 0 0  0 0 0 1 0"/>
			</filter>
		</defs>
		<mask maskUnits="userSpaceOnUse" x="8.7" y="188.7" width="184.6" height="33" id="SVGID_1_">
			<g class="st0">
				<g>
					<defs>
						<rect id="SVGID_2_" x="-0.3" y="181.7" width="203.5" height="42.2"/>
					</defs>
					<clipPath id="SVGID_3_">
						<use xlink:href="#SVGID_2_"  style="overflow:visible;"/>
					</clipPath>
					<g style="clip-path:url(#SVGID_3_);">
						
							<image style="overflow:visible;" width="424" height="88" xlink:href="13404B43.jpg"  transform="matrix(0.48 0 0 0.48 -0.3319 181.6998)">
						</image>
					</g>
				</g>
			</g>
		</mask>
		<g class="st1">
			<g>
				<path class="st2" d="M101,221.7c51,0,92.3-7.4,92.3-16.5c0-9.1-41.3-16.5-92.3-16.5s-92.3,7.4-92.3,16.5
					C8.7,214.3,50,221.7,101,221.7"/>
			</g>
		</g>
		<path class="st3" d="M89.1,92.8c0,6.6,5.3,11.9,11.9,11.9c6.6,0,11.9-5.3,11.9-11.9c0-6.6-5.3-11.9-11.9-11.9
			C94.5,80.8,89.1,86.2,89.1,92.8 M101,116.6c-13.2,0-23.8-10.7-23.8-23.8c0-13.2,10.7-23.8,23.8-23.8c13.2,0,23.8,10.7,23.8,23.8
			C124.9,105.9,114.2,116.6,101,116.6 M135.4,82.9c-0.8-2.6-1.8-5.1-3.1-7.4l5.9-12.4c-2.2-2.7-4.7-5.2-7.4-7.4l-12.4,5.9
			c-2.3-1.3-4.8-2.3-7.4-3.1l-4.6-13c-1.7-0.2-3.5-0.3-5.2-0.3c-1.8,0-3.5,0.1-5.2,0.3l-4.6,13c-2.6,0.8-5.1,1.8-7.4,3.1l-12.5-5.9
			c-2.7,2.2-5.2,4.7-7.4,7.4l5.9,12.4c-1.3,2.3-2.3,4.8-3.1,7.4l-13,4.6c-0.2,1.7-0.3,3.5-0.3,5.2c0,1.8,0.1,3.5,0.3,5.2l13,4.6
			c0.8,2.6,1.8,5.1,3.1,7.4l-5.9,12.4c2.2,2.7,4.7,5.2,7.4,7.4l12.4-5.9c2.3,1.3,4.8,2.3,7.4,3.1l4.6,13c1.7,0.2,3.5,0.3,5.2,0.3
			c1.8,0,3.5-0.1,5.2-0.3l4.6-13c2.6-0.8,5.1-1.8,7.4-3.1l12.4,5.9c2.7-2.2,5.2-4.7,7.4-7.4l-5.9-12.4c1.3-2.3,2.3-4.8,3.1-7.4
			l13-4.6c0.2-1.7,0.3-3.5,0.3-5.2c0-1.8-0.1-3.5-0.3-5.2L135.4,82.9z"/>
	</g>
	<g>
		<polygon class="st3" points="162.1,146.8 158.9,140.4 155.8,146.8 148.7,147.8 153.8,152.8 152.6,159.9 158.9,156.5 165.3,159.9 
			164,152.8 169.2,147.8 		"/>
		<polygon class="st3" points="183,38.6 189.4,41.9 188.2,34.9 193.3,29.9 186.2,28.9 183,22.4 179.9,28.9 172.8,29.9 177.9,34.9 
			176.7,41.9 		"/>
		<polygon class="st3" points="13.4,77.1 10.2,70.7 7.1,77.1 0,78.2 5.1,83.2 3.9,90.2 10.2,86.9 16.6,90.2 15.4,83.2 20.5,78.2 		
			"/>
		<path class="st3" d="M77.9,0l-3.8,5.6c6.8,4.6,6.7,14.9,6.7,15l6.8,0.2C87.6,20.2,87.9,6.7,77.9,0z"/>
		<path class="st3" d="M180.3,98.3l1.3,6.7c8.1-1.5,15.2,5.8,15.3,5.9l2.5-2.3l2.5-2.3C201.4,105.7,192.1,96,180.3,98.3z"/>
		<path class="st3" d="M66.5,149.1c-0.4,0.4-10.1,9.7-7.9,21.5l6.7-1.3c-1.5-8.1,5.8-15.2,5.9-15.3l-2.3-2.5L66.5,149.1z"/>
	</g>
</g>
</svg>
