<svg xmlns="http://www.w3.org/2000/svg" fill="currentColor" viewBox="0 0 32 32"><g stroke-width=".734"><path d="M17.038 31.57L31.57 17.038a1.468 1.468 0 000-2.076L17.038.43a1.468 1.468 0 00-2.076 0L.43 14.962a1.468 1.468 0 000 2.076L14.962 31.57a1.468 1.468 0 002.076 0zM12.367 9.253a.734.734 0 01-1.038-1.038l4.152-4.152a.737.737 0 01.512-.213c.002 0 .004-.002.007 0l.01.001a.718.718 0 01.271.055.72.72 0 01.238.157l4.152 4.152a.734.734 0 01-1.038 1.038l-2.899-2.9v6.532a.734.734 0 01-1.467 0V6.354zm3.114 18.684l-4.152-4.152a.734.734 0 011.038-1.038l2.9 2.9-.002-6.533a.734.734 0 011.468 0l.001 6.532 2.9-2.899a.734.734 0 011.037 1.038l-4.152 4.152a.733.733 0 01-1.038 0z"/><path d="M17.038 31.57L31.57 17.038a1.468 1.468 0 000-2.076L17.038.43a1.468 1.468 0 00-2.076 0L.43 14.962a1.468 1.468 0 000 2.076L14.962 31.57a1.468 1.468 0 002.076 0zM12.367 9.253a.734.734 0 01-1.038-1.038l4.152-4.152a.737.737 0 01.512-.213c.002 0 .004-.002.007 0l.01.001a.718.718 0 01.271.055.72.72 0 01.238.157l4.152 4.152a.734.734 0 01-1.038 1.038l-2.899-2.9v6.532a.734.734 0 01-1.468 0V6.354zm3.114 18.684l-4.152-4.152a.734.734 0 011.038-1.038l2.9 2.9-.002-6.533a.734.734 0 011.468 0l.001 6.532 2.9-2.899a.734.734 0 011.037 1.038l-4.152 4.152a.733.733 0 01-1.038 0z"/></g></svg>