<svg fill="currentColor" viewBox="0 0 32 32" xmlns="http://www.w3.org/2000/svg"><path d="M15.695 31.375a.796.796 0 00.867-.171l4.504-4.505a.797.797 0 00-1.126-1.126l-3.145 3.145.001-9.339a.797.797 0 00-1.592 0l-.001 9.34-3.146-3.146a.797.797 0 00-1.126 1.126l4.505 4.505a.776.776 0 00.259.171zM21.066 6.43a.797.797 0 000-1.126L16.562.798 16.56.796a.781.781 0 00-.55-.23l-.011-.002c-.002 0-.005.002-.008.001a.79.79 0 00-.555.233L10.93 5.303a.797.797 0 001.126 1.126l3.146-3.145v9.337a.797.797 0 001.592 0V3.284l3.145 3.145c.311.31.816.31 1.126 0z"/></svg>