<svg fill="currentColor" viewBox="0 0 32 32" xmlns="http://www.w3.org/2000/svg"><path d="M16 30.648a.756.756 0 00.756-.756V21.03l2.984 2.984a.756.756 0 001.069-1.068l-4.274-4.275-.003-.002a.755.755 0 00-.522-.217L16 18.45l-.006.002a.75.75 0 00-.528.22l-4.274 4.275a.756.756 0 001.068 1.068l2.985-2.984v8.86c0 .419.338.756.755.758zm0-29.296a.756.756 0 00-.755.756v8.862L12.26 7.986a.756.756 0 00-1.068 1.068l4.274 4.275a.755.755 0 001.069 0l4.274-4.275a.756.756 0 00-1.069-1.068l-2.984 2.984V2.11A.757.757 0 0016 1.352z"/></svg>