<svg fill="currentColor" viewBox="0 0 32 32" xmlns="http://www.w3.org/2000/svg"><path d="M17.038 31.57L31.57 17.038a1.469 1.469 0 000-2.076L17.038.43a1.469 1.469 0 00-2.076 0L.429 14.962a1.469 1.469 0 000 2.076L14.962 31.57a1.469 1.469 0 002.076 0zM15.48 13.405l-4.152-4.152a.734.734 0 011.038-1.038l2.899 2.899V4.583a.734.734 0 011.468 0v6.531l2.899-2.9a.734.734 0 011.038 1.039l-4.152 4.152a.733.733 0 01-1.038 0zm-3.114 10.38a.734.734 0 01-1.038-1.038l4.152-4.152a.715.715 0 01.238-.158.71.71 0 01.274-.056c.003 0 .004 0 .007-.002l.009.003a.733.733 0 01.508.21l.002.003 4.152 4.152a.734.734 0 01-1.038 1.038l-2.9-2.899v6.531a.734.734 0 01-1.467 0v-6.531z"/></svg>