<svg xmlns="http://www.w3.org/2000/svg" viewBox="0 0 32 32" fill="currentColor"><path d="M32 16C32 7.165 24.836.001 16.001.001 7.164 0 0 7.162 0 16c0 8.835 7.164 15.999 15.999 15.999C24.836 31.999 32 24.835 32 16zm-23.831-.467a1.079 1.079 0 010-1.524l7.17-6.345c.214-.214.497-.317.778-.313.28-.002.561.099.776.313l7.17 6.343c.42.42.42 1.103 0 1.524-.42.42-1.104.42-1.524 0l-6.422-5.68-6.422 5.68a1.08 1.08 0 01-1.526.002zm1.524 7.686c-.42.42-1.104.42-1.524 0a1.079 1.079 0 010-1.524l7.17-6.344c.214-.215.497-.318.778-.313.28-.003.561.098.776.313l7.17 6.342c.42.42.42 1.104 0 1.524-.42.42-1.104.42-1.524 0l-6.422-5.68z"/></svg>