<svg xmlns="http://www.w3.org/2000/svg" viewBox="0 0 32 32" fill="currentColor"><path d="M16.04 9.956l6.392 5.654a1.074 1.074 0 001.517 0 1.074 1.074 0 000-1.517L16.813 7.78a1.062 1.062 0 00-.772-.311 1.076 1.076 0 00-.775.311L8.13 14.093a1.074 1.074 0 000 1.517 1.074 1.074 0 001.517 0zm7.909 13.306a1.074 1.074 0 000-1.517l-7.136-6.315a1.062 1.062 0 00-.772-.311 1.076 1.076 0 00-.775.311L8.13 21.743a1.074 1.074 0 000 1.517 1.074 1.074 0 001.517 0l6.391-5.654 6.392 5.654c.42.42 1.1.42 1.519.002zM32 16c0-8.836-7.164-16-16-16S0 7.164 0 16s7.164 16 16 16 16-7.164 16-16zM2.133 16C2.133 8.354 8.354 2.133 16 2.133c7.646 0 13.867 6.221 13.867 13.867 0 7.646-6.221 13.867-13.867 13.867-7.646 0-13.867-6.221-13.867-13.867z"/></svg>