<svg xmlns="http://www.w3.org/2000/svg" viewBox="0 0 32 32" fill="currentColor"><path d="M23.676 19.413a1.067 1.067 0 000-1.508l-6.919-6.918a1.064 1.064 0 00-.757-.312c-.275 0-.548.103-.757.312l-6.919 6.918a1.067 1.067 0 001.509 1.508L16 13.246l6.167 6.167a1.067 1.067 0 001.509 0zM32 16c0-8.836-7.164-16-16-16S0 7.164 0 16s7.164 16 16 16 16-7.164 16-16zM2.133 16C2.133 8.354 8.354 2.133 16 2.133c7.646 0 13.867 6.221 13.867 13.867 0 7.646-6.221 13.867-13.867 13.867-7.646 0-13.867-6.221-13.867-13.867z"/></svg>