<svg viewBox="0 0 32 32" xmlns="http://www.w3.org/2000/svg" fill="currentColor"><path d="M11 25c0-.594-.128-1.168-.38-1.702A4.017 4.017 0 007 21c-2.206 0-4 1.794-4 4 0 .394.074.766.18 1.126a7.998 7.998 0 002.694 2.694c.36.106.732.18 1.126.18 2.206 0 4-1.794 4-4zm-4-2c.772 0 1.482.452 1.812 1.15A2.003 2.003 0 017 27c-1.102 0-2-.898-2-2s.898-2 2-2zM31 0h-4.328c-.236 0-.464.084-.646.236l-14.16 11.958A9.484 9.484 0 0010 12C4.486 12 0 16.486 0 22s4.486 10 10 10 10-4.486 10-10a9.88 9.88 0 00-.5-3.1l3.044-1.978a1 1 0 00.456-.838V12.45l3.802-.2a.999.999 0 00.942-.906l.364-3.852 3.322-1.588c.35-.168.57-.52.57-.904V1a1 1 0 00-1-1zm-1 4.37l-3.264 1.56a1 1 0 00-.564.808l-.336 3.558-3.888.204c-.532.03-.948.468-.948 1v4.04l-3.264 2.122a1 1 0 00-.376 1.228A7.907 7.907 0 0118 22c0 4.412-3.588 8-8 8-1.514 0-2.916-.446-4.126-1.18a7.998 7.998 0 01-2.694-2.694C2.446 24.916 2 23.514 2 22c0-4.412 3.588-8 8-8 .59 0 1.21.082 1.896.248.31.076.638 0 .882-.208L27.038 2H30v2.37z"/></svg>