<svg viewBox="0 0 32 32" xmlns="http://www.w3.org/2000/svg" fill="currentColor"><path d="M4 10h4a2 2 0 002-2V4a2 2 0 00-2-2H4a2 2 0 00-2 2v4a2 2 0 002 2zm10 0h4a2 2 0 002-2V4a2 2 0 00-2-2h-4a2 2 0 00-2 2v4a2 2 0 002 2zm10 0h4a2 2 0 002-2V4a2 2 0 00-2-2h-4a2 2 0 00-2 2v4a2 2 0 002 2zM2 18a2 2 0 002 2h4a2 2 0 002-2v-4a2 2 0 00-2-2H4a2 2 0 00-2 2v4zm10 0a2 2 0 002 2h4a2 2 0 002-2v-4a2 2 0 00-2-2h-4a2 2 0 00-2 2v4zm10 0a2 2 0 002 2h4a2 2 0 002-2v-4a2 2 0 00-2-2h-4a2 2 0 00-2 2v4zM2 28a2 2 0 002 2h4a2 2 0 002-2v-4a2 2 0 00-2-2H4a2 2 0 00-2 2v4zm10 0a2 2 0 002 2h4a2 2 0 002-2v-4a2 2 0 00-2-2h-4a2 2 0 00-2 2v4zm10 0a2 2 0 002 2h4a2 2 0 002-2v-4a2 2 0 00-2-2h-4a2 2 0 00-2 2v4z"/></svg>