<svg xmlns="http://www.w3.org/2000/svg" viewBox="0 0 32 32" fill="currentColor"><path d="M17 2C8.716 2 2 8.716 2 17s6.716 15 15 15 15-6.716 15-15S25.284 2 17 2zm0 28C9.832 30 4 24.168 4 17S9.832 4 17 4s13 5.832 13 13-5.832 13-13 13zm1.714-20C20.526 10 22 11.346 22 13a1 1 0 002 0c0-2.758-2.372-5-5.286-5H18V7a1 1 0 00-2 0v1h-.714C12.372 8 10 10.242 10 13s2.372 5 5.286 5H16v6h-.714C13.474 24 12 22.654 12 21a1 1 0 00-2 0c0 2.758 2.372 5 5.286 5H16v1a1 1 0 002 0v-1h.714C21.628 26 24 23.758 24 21s-2.372-5-5.286-5H18v-6h.714zm0 8C20.526 18 22 19.346 22 21s-1.474 3-3.286 3H18v-6h.714zM16 16h-.714C13.474 16 12 14.654 12 13s1.474-3 3.286-3H16v6z"/></svg>