<svg xmlns="http://www.w3.org/2000/svg" viewBox="0 0 32 32" fill="currentColor"><path d="M15.45 31.922a1.986 1.986 0 001.1 0c12.378-3.536 14.2-16.048 13.436-22.172A2.003 2.003 0 0028 8c-.286-.022-2-.318-2-4 0-.53-.21-1.04-.586-1.414C24.982 2.154 22.5 0 16 0S7.018 2.154 6.586 2.586A1.995 1.995 0 006 4c0 3.682-1.714 3.978-2.058 4.002-1.008 0-1.802.75-1.928 1.75-.764 6.122 1.06 18.634 13.436 22.17zM4 10s4 0 4-6c0 0 2-2 8-2s8 2 8 2c0 6 4 6 4 6s2 16-12 20C2 26 4 10 4 10zm12 10a2 2 0 002-2V8a2 2 0 00-4 0v10a2 2 0 002 2zm-2 4a2 2 0 104 0 2 2 0 10-4 0z"/></svg>