<svg viewBox="0 0 32 32" xmlns="http://www.w3.org/2000/svg" fill="currentColor"><path d="M2 24.254h4.59c.362.36 8.702 7.38 8.702 7.38.502.304.928.392 1.292.358.74-.07 1.26-.69 1.418-1.344.008-.064.008-29.232-.002-29.296-.156-.656-.678-1.276-1.416-1.346-.364-.034-.79.054-1.292.358 0 0-8.34 7.276-8.702 7.636H2a2 2 0 00-2 2v12.254a2 2 0 002 2zm29.642-13.432a1.222 1.222 0 00-1.726 0l-3.452 3.452-3.452-3.452a1.222 1.222 0 00-1.726 1.726L24.738 16l-3.452 3.452a1.222 1.222 0 001.726 1.726l3.452-3.452 3.452 3.452a1.222 1.222 0 001.726-1.726L28.19 16l3.452-3.452a1.218 1.218 0 000-1.726z"/></svg>