<svg viewBox="0 0 32 32" xmlns="http://www.w3.org/2000/svg" fill="currentColor"><path d="M9.558 4.056a3.002 3.002 0 014.242 0l10.726 10.726c.528-1.998.034-4.21-1.532-5.776l-7.072-7.07a6 6 0 00-8.486 0l-1.59 1.59a6 6 0 000 8.486l7.072 7.072c1.566 1.566 3.778 2.06 5.776 1.532L7.968 9.89a3.002 3.002 0 010-4.242l1.59-1.592zm6.52 26.008a6 6 0 008.486 0l1.59-1.592a6 6 0 000-8.486l-7.072-7.068c-1.566-1.566-3.778-2.06-5.776-1.532l10.726 10.726a3.002 3.002 0 010 4.242l-1.592 1.592a3.002 3.002 0 01-4.242 0L7.474 17.218c-.528 1.998-.034 4.21 1.532 5.776l7.072 7.07z"/></svg>