<svg xmlns="http://www.w3.org/2000/svg" viewBox="0 0 32 32" fill="currentColor"><path d="M11.876 25.052a4.264 4.264 0 01-3.134-1.382c-1.382-1.49-2.39-.552-2.692.914C4.52 32.058 6.73 32 6.73 32l21.26.058c2.21 0 4-1.79 4-4v-14c0-2.21.256-5.338-1.76-4.432-1.526.684-3.532 1.094-6.676.446-1.466-.302-2.404-1.31-.914-2.692a4.261 4.261 0 001.382-3.134A4.247 4.247 0 0019.776 0a4.245 4.245 0 00-4.246 4.246c0 1.328.692 2.424 1.566 3.294.526.524 1.914 1.894-1.638 2.52-3.906.686-7.652-1.522-8.406-.72-.5.53-1.876 2.53-.992 7.22.672 3.57 2 2.092 2.522 1.566.87-.874 1.966-1.566 3.294-1.566a4.246 4.246 0 010 8.492z"/></svg>