<svg xmlns="http://www.w3.org/2000/svg" viewBox="0 0 32 32" fill="currentColor"><path d="M31.698 14.286l-4.822-8.77c-.012-.022-.038-.03-.052-.05a.985.985 0 00-1.142-.416L18 7.608V5a1 1 0 00-2 0v3.272L7.65 11.05c-.068.022-.12.068-.18.104h-.002a.986.986 0 00-.332.316c-.01.014-.028.02-.038.036l-4.966 8.75a.981.981 0 00-.106.62C2.02 20.918 2 20.956 2 21c0 2.06 3.11 5 6 5s6-2.94 6-5a.952.952 0 00-.074-.362l-.002-.012-.006-.02a1.027 1.027 0 00-.114-.35l-4.366-7.69L16 10.382V27a1 1 0 002 0V9.716l5.892-1.96-3.59 6.532A.987.987 0 0020 15c0 2.06 3.11 5 6 5s6-2.94 6-5a.995.995 0 00-.302-.714zM4.576 20l3.392-5.974L11.358 20H4.576zm18.168-6L26 8.076 29.256 14h-6.512z"/></svg>