<svg xmlns="http://www.w3.org/2000/svg" viewBox="0 0 32 32" fill="currentColor"><path d="M9.03 16.5a1 1 0 00.79-.386l4.404-5.67 3.016 3.542c.192.222.408.32.766.352.29-.002.57-.13.76-.358l7-8.338a.998.998 0 00-.124-1.408.998.998 0 00-1.408.124l-6.24 7.432-3.044-3.58c-.198-.228-.562-.334-.784-.35a1.001 1.001 0 00-.768.386l-5.158 6.64a1 1 0 00.79 1.614zM30.978 0H3.022C2.458 0 2 .448 2 1s.458 1 1.022 1H4v18a2 2 0 002 2h10v3.122l-5.672 5.138a1 1 0 101.344 1.48L16 27.82V31a1 1 0 002 0v-3.18l4.328 3.92a.997.997 0 001.412-.068 1 1 0 00-.068-1.412L18 25.122V22h10a2 2 0 002-2V2h.978C31.542 2 32 1.552 32 1s-.458-1-1.022-1zM28 20H6V2h22v18z"/></svg>