<svg xmlns="http://www.w3.org/2000/svg" viewBox="0 0 32 32" fill="currentColor"><path d="M17 2C8.716 2 2 8.716 2 17s6.716 15 15 15 15-6.716 15-15S25.284 2 17 2zm10.938 8h-2.98c-.58-1.824-1.376-3.422-2.336-4.704A13.083 13.083 0 0127.938 10zM18 10V4.164c1.89.558 3.732 2.654 4.866 5.836H18zm5.448 2c.282 1.224.464 2.564.522 4H18v-4h5.448zM16 4.164V10h-4.866C12.268 6.818 14.11 4.722 16 4.164zM16 12v4h-5.97c.058-1.436.24-2.776.522-4H16zm-7.97 4H4.05c.108-1.406.43-2.754.952-4h3.52a23.96 23.96 0 00-.492 4zm0 2a23.96 23.96 0 00.492 4h-3.52a12.895 12.895 0 01-.952-4h3.98zm2 0H16v4h-5.448a21.758 21.758 0 01-.522-4zM16 24v5.836c-1.89-.558-3.732-2.654-4.866-5.836H16zm2 5.836V24h4.866c-1.134 3.182-2.976 5.278-4.866 5.836zM18 22v-4h5.97a21.758 21.758 0 01-.522 4H18zm7.97-4h3.98a12.895 12.895 0 01-.952 4h-3.52a23.96 23.96 0 00.492-4zm0-2a23.96 23.96 0 00-.492-4h3.52c.522 1.246.844 2.594.952 4h-3.98zM11.378 5.296C10.42 6.578 9.622 8.176 9.042 10h-2.98a13.083 13.083 0 015.316-4.704zM6.062 24h2.98c.58 1.824 1.376 3.422 2.336 4.704A13.083 13.083 0 016.062 24zm16.56 4.704c.958-1.282 1.756-2.88 2.336-4.704h2.98a13.083 13.083 0 01-5.316 4.704z"/></svg>