<svg viewBox="0 0 32 32" xmlns="http://www.w3.org/2000/svg" fill="currentColor"><path d="M28 4c-.562-1.25-1.582-2-2.688-2H6.5c-1.104 0-2 .75-2.5 2L0 20v9.032a1 1 0 001 1h30a1 1 0 001-1v-8.908l-.026-.092L28 4zm-22.11.666C5.982 4.46 6.216 4 6.5 4h18.812c.274 0 .59.282.812.712l3.522 14.314c0 .004-.006 0-.006.004a1 1 0 01-1 1l-.004.002H21a1 1 0 00-1 1V23a1 1 0 01-1 1c-.02 0-.04.026-.06.032h-5.906C13.02 24.026 13.02 24 13 24a1 1 0 01-1-1v-1.968a1 1 0 00-1-1H3.364l-.004-.002a1.014 1.014 0 01-1.016-1c0-.014-.016-.004-.02-.014L5.89 4.666z"/></svg>