<svg viewBox="0 0 32 32" xmlns="http://www.w3.org/2000/svg" fill="currentColor"><path d="M16.084 0c-8.836 0-16 7.164-16 16s7.164 16 16 16 16-7.164 16-16-7.164-16-16-16zm0 30c-7.72 0-14-6.28-14-14s6.28-14 14-14 14 6.28 14 14-6.282 14-14 14zm7.008-20.364a1.4 1.4 0 00-1.938.406L14.402 20.36l-3.228-2.988c-.568-.524-1.454-.49-1.98.078s-.49 1.452.078 1.978l4.462 4.128c.016.014.036.018.052.032.04.032.064.076.106.106.06.04.128.048.192.076.076.036.15.07.23.092.078.02.154.03.234.036.114.012.224.012.336-.004.046-.008.09-.02.136-.032.138-.034.266-.088.392-.164.022-.014.04-.03.062-.044.082-.056.17-.098.24-.174.05-.054.072-.124.112-.184.002-.002.006-.004.006-.006l7.664-11.714a1.402 1.402 0 00-.404-1.94z"/></svg>