<svg viewBox="0 0 32 32" xmlns="http://www.w3.org/2000/svg" fill="currentColor"><path d="M15.272 31.458c.168.186.33.306.486.39l.008.004a.714.714 0 00.314.098c.1 0 .206-.042.314-.098l.008-.004c.156-.084.318-.204.486-.39 0 0 9.296-10.11 10.23-18.87.056-.452.094-.91.094-1.376C27.212 5.02 22.192 0 16 0S4.788 5.02 4.788 11.212c0 .474.038.936.096 1.394.958 8.756 10.388 18.852 10.388 18.852zM16 4c3.976 0 7.212 3.236 7.212 7.212 0 3.976-3.236 7.212-7.212 7.212s-7.212-3.236-7.212-7.212C8.788 7.236 12.024 4 16 4z"/></svg>