<svg xmlns="http://www.w3.org/2000/svg" viewBox="0 0 32 32" fill="currentColor"><path d="M10 10.938a1.062 1.062 0 102.124 0 1.062 1.062 0 10-2.124 0zM16 0C7.164 0 0 7.164 0 16s7.164 16 16 16 16-7.164 16-16S24.836 0 16 0zM8 10.938a3.062 3.062 0 116.124 0 3.062 3.062 0 01-6.124 0zm2.708 11.77a1.004 1.004 0 01-1.416 0 1 1 0 010-1.414l12-12a1 1 0 011.414 1.414l-11.998 12zM20.938 24a3.062 3.062 0 110-6.124 3.062 3.062 0 010 6.124zm-1.062-3.062a1.062 1.062 0 102.124 0 1.062 1.062 0 10-2.124 0z"/></svg>