<svg xmlns="http://www.w3.org/2000/svg" viewBox="0 0 32 32" fill="currentColor"><path d="M11.248 23.444c-.9 0-1.738-.352-2.36-.99-1.712-1.764-3.834-.994-4.336 1.342-.81 3.78-.732 6.202.24 7.406.558.692 1.214.744 1.4.744l20.87.054c2.716 0 4.928-2.128 4.928-4.744v-13.1l.006-.626c.018-1.61.038-3.274-.818-4.138-.566-.574-1.382-.696-2.306-.302-1.708.73-3.56.828-5.966.356-.602-.12-.84-.316-.832-.29 0-.002.04-.178.402-.498 1.076-.954 1.694-2.294 1.694-3.684C24.168 2.23 21.85 0 19 0c-2.848 0-5.166 2.23-5.166 4.972 0 1.364.624 2.644 1.854 3.81.058.058.176.17.268.274-.2.098-.598.242-1.358.37-1.988.334-3.946-.138-5.444-.492-1.672-.394-2.736-.524-3.354.104-.692.7-2.194 2.842-1.242 7.654.144.736.588 2.976 2.29 2.976.842 0 1.472-.61 1.862-.984 2.476-2.382 5.706-.678 5.706 1.788-.002 1.638-1.422 2.972-3.168 2.972zm0-7.946c-1.4 0-2.72.586-3.976 1.792-.068.068-.22.212-.342.304-.098-.168-.26-.536-.41-1.29-.72-3.64.196-5.24.588-5.73.338.01.944.154 1.588.306 1.242.292 2.788.656 4.496.656.6 0 1.186-.046 1.738-.138 1.144-.192 2.708-.586 3.07-1.772.332-1.092-.558-1.936-.942-2.298-.824-.782-1.224-1.55-1.224-2.356C15.834 3.334 17.254 2 19 2s3.168 1.334 3.168 2.972c0 .828-.362 1.604-1.018 2.184-1.124.992-1.172 1.89-1.014 2.468.238.88 1.108 1.53 2.38 1.78 2.8.548 5.068.406 7.14-.476.064-.03.114-.044.14-.058.222.448.206 1.91.198 2.636l-.006 13.75c0 1.512-1.312 2.744-2.926 2.744l-20.68-.018c-.01-.008-.94-.824.124-5.766.11-.518.314-.748.366-.772 0 0 .2.01.58.402a5.24 5.24 0 003.792 1.596c2.848 0 5.166-2.23 5.166-4.972s-2.314-4.972-5.162-4.972z"/></svg>