<svg xmlns="http://www.w3.org/2000/svg" viewBox="0 0 32 32" fill="currentColor"><path d="M16 0C7.164 0 0 7.164 0 16s7.164 16 16 16 16-7.164 16-16S24.836 0 16 0zm0 30C8.28 30 2 23.72 2 16S8.28 2 16 2s14 6.28 14 14-6.28 14-14 14zm-1.876-19.062a3.062 3.062 0 10-6.124 0 3.062 3.062 0 006.124 0zm-4.124 0a1.063 1.063 0 112.125.001A1.063 1.063 0 0110 10.938zm10.938 6.938a3.062 3.062 0 100 6.124 3.062 3.062 0 000-6.124zm0 4.124a1.063 1.063 0 11.001-2.125A1.063 1.063 0 0120.938 22zm1.77-12.708a1 1 0 00-1.414 0l-12 12a1 1 0 001.414 1.416l12-12c.39-.392.39-1.024 0-1.416z"/></svg>