<svg viewBox="0 0 32 32" xmlns="http://www.w3.org/2000/svg" fill="currentColor"><path d="M26 16c-.07 0-.136.018-.204.02A10.03 10.03 0 0026 14c0-5.522-4.478-10-10-10S6 8.478 6 14c0 .034.01.066.01.1C2.618 14.584 0 17.474 0 21c0 3.524 2.612 6.41 6 6.9v.1h20a6 6 0 100-12zm0 10H6.628a1.935 1.935 0 00-.342-.08C3.842 25.568 2 23.452 2 21c0-2.456 1.846-4.57 4.292-4.92A2 2 0 008 13.902C8.054 9.534 11.622 6 16 6c4.412 0 8 3.588 8 8 0 .544-.056 1.088-.164 1.618a2 2 0 001.96 2.4c.024 0 .046 0 .07-.002.044.002.138-.006.216-.016A4.006 4.006 0 0130 22c0 2.206-1.794 4-4 4z"/></svg>