<svg viewBox="0 0 32 32" xmlns="http://www.w3.org/2000/svg" fill="currentColor"><path d="M30 10h-4s-1.156 0-2-2c-.43-1.018-.896-2-2-2h-8c-1.104 0-1.584.976-2 2-.812 2-2 2-2 2H8a2 2 0 00-2-2H4a2 2 0 00-2 2 2 2 0 00-2 2v16a2 2 0 002 2h28a2 2 0 002-2V12a2 2 0 00-2-2zm0 18H2v-8h9.1c.49 3.388 3.376 6 6.9 6 3.61 0 6.546-2.742 6.924-6.25H30V28zm-17-9c0-2.758 2.244-5 5-5s5 2.242 5 5c0 2.756-2.244 5-5 5s-5-2.244-5-5zm11.9-1c-.49-3.388-3.376-6-6.9-6s-6.41 2.612-6.9 6H2v-6h8c1.168 0 2.88-.85 3.852-3.248.166-.406.278-.63.352-.752h7.584c.134.22.306.626.37.778C23.452 11.844 25.586 12 26 12h4v6h-5.1zM4 15.02a1 1 1080 102 0 1 1 1080 10-2 0z"/></svg>