<svg xmlns="http://www.w3.org/2000/svg" viewBox="0 0 32 32" fill="currentColor"><path d="M27.1 10H18V4.812c.072-2.808-.562-4.808-2.938-4.808C12.5.004 12 2.13 12 2.13 11.532 9.66 4 12 4 12v16l2.922.124C14.488 28.124 9.948 32 22.38 32 31.82 32 32 23.692 32 18s-2.594-8-4.9-8zm-4.72 20c-6.316 0-7.654-1.006-8.836-1.894-1.494-1.122-2.928-1.98-6.524-1.98h-.012L6 26.084v-12.74C8.494 12.18 13.45 9.06 13.978 2.51c.078-.16.336-.506 1.084-.506.178 0 .408.02.506.12.082.082.484.602.432 2.688V12h11.1c1.442 0 2.9 2.06 2.9 6 0 7.782-1.214 12-7.62 12zM1 30a1 1 0 001-1V11.084a1 1 0 00-2 0V29a1 1 0 001 1z"/></svg>