<svg viewBox="0 0 32 32" xmlns="http://www.w3.org/2000/svg" fill="currentColor"><path d="M16 0C7.164 0 0 7.164 0 16s7.164 16 16 16 16-7.164 16-16S24.836 0 16 0zm0 30C8.28 30 2 23.72 2 16S8.28 2 16 2s14 6.28 14 14-6.28 14-14 14zm6.47-21.848l-3.722 2.324-2.486 1.55a3.977 3.977 0 013.712 3.712l1.55-2.484 2.324-3.724a1 1 0 00-1.378-1.378zm-10.444 8.11l-1.55 2.486-2.324 3.724A.996.996 0 009 24c.184 0 .368-.05.53-.152l3.722-2.324 2.486-1.55a3.979 3.979 0 01-3.712-3.712zm4.236-4.236C16.174 12.02 16.09 12 16 12c-2.21 0-4 1.79-4 4 0 .09.02.174.026.262a3.979 3.979 0 003.712 3.712c.088.006.172.026.262.026 2.21 0 4-1.79 4-4 0-.09-.02-.174-.026-.262a3.979 3.979 0 00-3.712-3.712zM14 16c0-1.102.898-2 2-2s2 .898 2 2-.898 2-2 2-2-.898-2-2z"/></svg>