<svg viewBox="0 0 32 32" xmlns="http://www.w3.org/2000/svg" fill="currentColor"><path d="M1.898 29.382a1 1 0 00.906.576c2.87 0 5.298-.698 8.056-2.324 1.338.212 3.98.474 5.14.474 8.756 0 15.878-5.846 15.878-13.034S24.756 2.042 16 2.042.122 7.886.122 15.074c0 3.388 1.634 6.662 4.51 9.088a17.344 17.344 0 01-2.594 4.154c-.248.3-.304.716-.14 1.066zm.224-14.308C2.122 8.99 8.348 4.04 16 4.04s13.878 4.95 13.878 11.034S23.652 26.108 16 26.108c-1.148 0-4.136-.308-5.146-.504a1.035 1.035 0 00-.71.128c-1.864 1.14-3.49 1.792-5.23 2.068a19.018 19.018 0 001.86-3.586.997.997 0 00-.328-1.16c-2.79-2.112-4.324-4.948-4.324-7.98z"/></svg>