<svg viewBox="0 0 32 32" xmlns="http://www.w3.org/2000/svg" fill="currentColor"><path d="M.978 17.198l3.47-.128c.41.532.884 1.016 1.412 1.448l-.228 3.474c.38.216.772.416 1.184.594.41.178.826.324 1.244.454l2.37-2.55a8.991 8.991 0 002.02.032l2.29 2.612a11.91 11.91 0 002.458-.978l-.126-3.472a8.934 8.934 0 001.446-1.412l3.474.228c.216-.38.416-.772.594-1.184.178-.41.324-.826.454-1.244l-2.55-2.37a8.991 8.991 0 00.032-2.02l2.612-2.29a11.91 11.91 0 00-.978-2.458l-3.472.126a8.934 8.934 0 00-1.412-1.446L17.5 1.14c-.38-.216-.772-.416-1.184-.594-.41-.176-.826-.324-1.244-.452l-2.368 2.55a8.991 8.991 0 00-2.02-.032L8.392 0a11.91 11.91 0 00-2.458.978l.126 3.47c-.53.41-1.014.882-1.446 1.41L1.14 5.632c-.216.38-.416.772-.594 1.184-.176.41-.324.826-.452 1.244l2.55 2.37a8.991 8.991 0 00-.032 2.02L0 14.74c.234.852.562 1.678.978 2.458zM13.942 6.056a6.001 6.001 0 11-4.754 11.02 6.001 6.001 0 014.754-11.02zm-5.376 5.51a3 3 1080 106 0 3 3 1080 10-6 0zm21.476 11.982l-.828-.294.378-.796.87-1.83a7.048 7.048 0 00-1.092-1.092l-1.83.87-.796.378-.294-.828-.68-1.914a7.049 7.049 0 00-1.542.002l-.68 1.914-.294.828-.796-.378-1.83-.87a7.048 7.048 0 00-1.092 1.092l.87 1.83.378.796-.828.294-1.914.68a6.984 6.984 0 00.002 1.54l1.914.68.828.294-.378.796-.87 1.83c.322.402.688.768 1.092 1.092l1.83-.87.796-.378.294.828.68 1.914c.252.028.51.044.77.044s.518-.016.772-.044l.68-1.914.294-.828.796.378 1.83.87a7.048 7.048 0 001.092-1.092l-.87-1.83-.378-.796.828-.294 1.914-.68a7.049 7.049 0 00-.002-1.542l-1.914-.68zM25 26.5a1.5 1.5 0 11.001-3.001A1.5 1.5 0 0125 26.5z"/></svg>