<svg viewBox="0 0 32 32" xmlns="http://www.w3.org/2000/svg" fill="currentColor"><path d="M26.166 16c1.868-4.29.716-7.018-.222-8.332-1.424-1.994-4.018-3.088-6.296-2.65C15.688 5.774 14 8.458 14 14v4.628l-2.316-2.316a1 1 0 00-1.414 1.414l4.024 4.022a.994.994 0 00.732.288.994.994 0 00.732-.288l4.044-4.042a1 1 0 00-1.414-1.414L16 18.678V14c0-5.768 1.986-6.628 4.02-7.018 1.306-.24 3.196.308 4.294 1.848 1.344 1.878 1.086 4.664-.726 7.84a1 1 0 001.044 1.48c.242-.042.964-.152 1.42-.152C28.23 17.998 30 19.792 30 22c0 2.206-1.794 4-4 4l-19.854.012C3.822 25.668 2 23.466 2 21c0-2.456 1.844-4.57 4.292-4.92l.86-.124a1 1 0 00.858-.99l-.016-1.064c.006-3.582 2.214-6.526 5.256-7 .544-.086.918-.596.834-1.142a.997.997 0 00-1.144-.834c-4.02.626-6.94 4.4-6.946 8.972l.016.202C2.584 14.59 0 17.556 0 21c0 3.492 2.516 6.496 6 7h20c3.308 0 6-2.692 6-6 0-3.272-2.608-5.94-5.834-6z"/></svg>