<svg xmlns="http://www.w3.org/2000/svg" viewBox="0 0 32 32" fill="currentColor"><path d="M20 14h-8v10c0 2-4 4.896-4 6v1a1 1 0 001 1h14a1 1 0 001-1v-1c0-1.104-4-4-4-6V14zm3.166-11.966V2h-2v.034C21.11 2.024 21.06 2 21 2a1 1 0 00-1 1v1h-2V3a.986.986 0 00-.834-.966V2h-2v.034C15.11 2.024 15.06 2 15 2a1 1 0 00-1 1v1h-2V3a.986.986 0 00-.834-.966V2h-2v.034C9.11 2.024 9.06 2 9 2a1 1 0 00-1 1v5c0 .53.21 1.04.586 1.414l2 2c.376.376.884.586 1.414.586h8c.53 0 1.04-.21 1.414-.586l2-2C23.79 9.04 24 8.53 24 8V3a.986.986 0 00-.834-.966z"/></svg>