<svg xmlns="http://www.w3.org/2000/svg" viewBox="0 0 32 32" fill="currentColor"><path d="M6 32h20a2 2 0 002-2V2a2 2 0 00-2-2H6a2 2 0 00-2 2v28a2 2 0 002 2zm16-10a2 2 0 11.001-4.001A2 2 0 0122 22zm2 4a2 2 0 11-4.001-.001A2 2 0 0124 26zm-2-10a2 2 0 11.001-4.001A2 2 0 0122 16zM8 8V4h16v4H8zm8 14a2 2 0 11.001-4.001A2 2 0 0116 22zm2 4a2 2 0 11-4.001-.001A2 2 0 0118 26zm-2-10a2 2 0 11.001-4.001A2 2 0 0116 16zm-6-4a2 2 0 11-.001 4.001A2 2 0 0110 12zm0 6a2 2 0 11-.001 4.001A2 2 0 0110 18zm0 6a2 2 0 11-.001 4.001A2 2 0 0110 24z"/></svg>