<svg xmlns="http://www.w3.org/2000/svg" viewBox="0 0 32 32" fill="currentColor"><path d="M30 0H4a2 2 0 000 4v16a2 2 0 002 2h10v3.122l-5.672 5.138a1 1 0 101.344 1.48L16 27.82V31a1 1 0 002 0v-3.18l4.328 3.92a.997.997 0 001.412-.068 1 1 0 00-.068-1.412L18 25.122V22h10a2 2 0 002-2V4a2 2 0 000-4zm-4.306 7.72l-7 6.75a1 1 0 01-1.384.004l-3.09-2.938-4.47 4.658a1.003 1.003 0 01-1.414.026 1 1 0 01-.028-1.414l5.158-5.376a1.009 1.009 0 011.41-.03l3.12 2.964 6.31-6.086a1 1 0 011.414.028 1 1 0 01-.026 1.414z"/></svg>