<svg xmlns="http://www.w3.org/2000/svg" viewBox="0 0 32 32" fill="currentColor"><path d="M4 6v16l.296.74L8 32l4-10-.01-.004c.006-.006.004-.016.01-.022V4c0-2.21-1.79-4-4-4S4 1.79 4 4v2zm2-2c0-1.102.898-2 2-2s2 .898 2 2v2H6V4zm2 22.614L6.97 24.04l-.4-1-.03-.074 1.46-.73 1.46.73-.03.076-.4 1L8 26.614zM10 21l-2-1-2 1V8h4v13zM25.184 5.958L23.268 1l-.018.006C23.11.434 22.616 0 22 0c-.662 0-1.184.496-1.276 1.132l-.036-.008-1.872 4.834L18 8v20c0 2.21 1.79 4 4 4s4-1.79 4-4a2 2 0 002-2v-6a2 2 0 00-2-2V8l-.816-2.042zM24 20v8c0 1.102-.898 2-2 2s-2-.898-2-2V8h4v12zm-.954-14h-2.092L22 3.386 23.046 6z"/></svg>