<svg viewBox="0 0 32 32" xmlns="http://www.w3.org/2000/svg" fill="currentColor"><path d="M16 0C7.164 0 0 7.164 0 16s7.164 16 16 16 16-7.164 16-16S24.836 0 16 0zm0 30C8.28 30 2 23.72 2 16S8.28 2 16 2s14 6.28 14 14-6.28 14-14 14zm-2.226-3.972a2.06 2.06 1080 104.12 0 2.06 2.06 1080 10-4.12 0zM15.834 4c-3.878 0-8 2.818-8 8.042a2 2 0 104 0c0-2.778 2.074-4.042 4-4.042 1.494 0 4 .438 4 3.376 0 1.042-.274 2.258-2.298 3.374-1.376.754-3.702 2.712-3.702 5.25a2 2 0 104 0c0-.372.792-1.286 1.63-1.748 2.898-1.596 4.37-3.91 4.37-6.876 0-5.096-4.018-7.376-8-7.376z"/></svg>