<svg width="35.124" height="32" xmlns="http://www.w3.org/2000/svg" fill="currentColor"><path d="M16 0C11.906 0 7.81 1.562 4.686 4.686c-6.248 6.248-6.248 16.38 0 22.628C7.81 30.438 11.906 32 16 32s8.19-1.562 11.314-4.686c6.248-6.248 6.248-16.38 0-22.628A15.952 15.952 0 0016 0zm-5.656 21.656A7.942 7.942 0 018 16c0-2.136.832-4.146 2.344-5.656C11.854 8.832 13.864 8 16 8s4.146.832 5.656 2.344A7.942 7.942 0 0124 16a7.942 7.942 0 01-2.344 5.656C20.146 23.168 18.136 24 16 24s-4.146-.832-5.656-2.344zM22.186 3.45L19.1 6.536C18.092 6.206 17.05 6 16 6c-.956 0-1.902.182-2.828.454l-3.12-3.12a13.92 13.92 0 0112.134.116zm-18.85 6.604l3.12 3.12c-.572 1.94-.548 4 .08 5.928L3.45 22.188A13.935 13.935 0 012 16c0-2.092.472-4.108 1.336-5.946zM6.1 25.898c0 .002 0 .002 0 0zm4.194 2.88l3.152-3.152c.838.222 1.692.374 2.554.374.956 0 1.902-.182 2.828-.456l3.12 3.12A13.96 13.96 0 0116 30c-2.002 0-3.932-.43-5.706-1.222zm18.366-6.836l-3.114-3.114a9.979 9.979 0 00.08-5.382l3.146-3.146a14.054 14.054 0 01-.112 11.642z"/></svg>