<svg xmlns="http://www.w3.org/2000/svg" viewBox="0 0 32 32" fill="currentColor"><path d="M17 2C8.716 2 2 8.716 2 17s6.716 15 15 15 15-6.716 15-15S25.284 2 17 2zm1.714 14C21.628 16 24 18.242 24 21s-2.372 5-5.286 5H18v1a1 1 0 01-2 0v-1h-.714C12.372 26 10 23.758 10 21a1 1 0 012 0c0 1.654 1.474 3 3.286 3H16v-6h-.714C12.372 18 10 15.758 10 13s2.372-5 5.286-5H16V7a1 1 0 012 0v1h.714C21.628 8 24 10.242 24 13a1 1 0 01-2 0c0-1.654-1.474-3-3.286-3H18v6h.714zM12 13c0 1.654 1.474 3 3.286 3H16v-6h-.714C13.474 10 12 11.346 12 13zm6.714 11C20.526 24 22 22.654 22 21s-1.474-3-3.286-3H18v6h.714z"/></svg>