<svg viewBox="0 0 32 32" xmlns="http://www.w3.org/2000/svg" fill="currentColor"><path d="M26 26H6V6h14.752L22 4H6a2 2 0 00-2 2v20a2 2 0 002 2h20a2 2 0 002-2V12.794L26 16v10zm3.366-23.772a1.396 1.396 0 00-1.936.406L16.558 18.318l-4.206-4.8a1.4 1.4 0 10-1.902 2.054l5.056 5.77c.032.052.082.092.122.14l.128.146c.016.014.036.018.052.032.04.032.064.076.106.106.086.056.18.092.274.126.022.008.04.022.062.028.14.046.286.074.43.074.006 0 .012-.004.018-.004.38.002.758-.138 1.036-.438.052-.056.072-.124.114-.186l.006-.006L29.772 4.166a1.4 1.4 0 00-.406-1.938z"/></svg>