<svg viewBox="0 0 32 32" xmlns="http://www.w3.org/2000/svg" fill="currentColor"><path d="M20.426 0c-.33 0-.708.102-1.142.364 0 0-8.34 7.276-8.702 7.636H6a2 2 0 00-2 2v12.254a2 2 0 002 2h4.582c.362.36 8.702 7.38 8.702 7.38.434.264.812.366 1.142.366.05 0 .1-.002.148-.006.74-.07 1.268-.69 1.426-1.344V1.352C21.844.696 21.314.076 20.574.008A1.18 1.18 0 0020.426 0zM20 29.624c-3.12-2.628-7.64-6.446-8.008-6.786a1.995 1.995 0 00-1.412-.582H6V10h4.582a2.06 2.06 0 001.394-.566c.364-.346 4.884-4.3 8.024-7.04v27.23zm5.082-10.13a1.001 1.001 0 00.898 1.788c2.022-1.02 3.278-3.042 3.278-5.282s-1.256-4.262-3.278-5.282a1.001 1.001 0 00-.898 1.788c1.342.676 2.176 2.014 2.176 3.494s-.834 2.818-2.176 3.494z"/></svg>