<svg width="32.784" height="32" xmlns="http://www.w3.org/2000/svg" fill="currentColor"><path d="M17.066 2.134a14.887 14.887 0 00-10.56 4.374c-5.832 5.832-5.832 15.288 0 21.118C9.424 30.542 13.244 32 17.066 32s7.644-1.458 10.56-4.374c5.832-5.832 5.832-15.288 0-21.118a14.887 14.887 0 00-10.56-4.374zm9.146 24.078A12.85 12.85 0 0117.066 30a12.857 12.857 0 01-9.146-3.788c-2.442-2.442-3.788-5.69-3.788-9.146S5.478 10.364 7.92 7.92a12.85 12.85 0 019.146-3.788c3.454 0 6.702 1.346 9.146 3.788S30 13.612 30 17.066s-1.346 6.704-3.788 9.146zM23 16h-5V8.986a1 1 0 00-2 0V17a1 1 0 001 1h6a1 1 0 000-2z"/></svg>