<svg xmlns="http://www.w3.org/2000/svg" viewBox="0 0 32 32" fill="currentColor"><path d="M4.9 22.004H14v5.188c-.07 2.806.562 4.808 2.938 4.808C19.5 32 20 29.874 20 29.874c.468-7.53 8-9.87 8-9.87v-16l-2.922-.124C17.512 3.88 22.052.004 9.62.004.18.004 0 8.312 0 14.004s2.594 8 4.9 8zm4.72-20c6.316 0 7.654 1.006 8.836 1.894 1.492 1.122 2.928 1.98 6.524 1.98h.012L26 5.92v12.738c-2.494 1.166-7.45 4.284-7.978 10.836-.078.16-.336.506-1.084.506-.178 0-.408-.02-.506-.12-.082-.084-.484-.602-.432-2.688v-7.188H4.9c-1.442 0-2.9-2.06-2.9-6 0-7.782 1.214-12 7.62-12zm21.38 0a1 1 0 00-1 1V20.92a1 1 0 002 0V3.004a1 1 0 00-1-1z"/></svg>