<svg viewBox="0 0 32 32" xmlns="http://www.w3.org/2000/svg" fill="currentColor"><path d="M15.212 16.424a5.218 5.218 0 005.212-5.212C20.424 8.338 18.086 6 15.212 6S10 8.338 10 11.212a5.218 5.218 0 005.212 5.212zm0-8.424c1.77 0 3.212 1.44 3.212 3.212s-1.44 3.212-3.212 3.212S12 12.982 12 11.212 13.44 8 15.212 8zm-.728 23.458c.168.186.33.306.486.39l.008.004a.714.714 0 00.314.098c.1 0 .206-.042.314-.098l.008-.004c.156-.084.318-.204.486-.39 0 0 9.296-10.11 10.23-18.87.056-.452.094-.91.094-1.376C26.424 5.02 21.404 0 15.212 0S4 5.02 4 11.212c0 .474.038.936.096 1.394.958 8.756 10.388 18.852 10.388 18.852zM15.212 2c5.08 0 9.212 4.132 9.212 9.212 0 .338-.024.698-.082 1.164-.716 6.712-7.018 14.588-9.048 16.984-2.082-2.4-8.474-10.256-9.214-17A9.375 9.375 0 016 11.212C6 6.132 10.132 2 15.212 2z"/></svg>