<svg xmlns="http://www.w3.org/2000/svg" viewBox="0 0 32 32" fill="currentColor"><path d="M2 30h18a2 2 0 002-2v-2.7a7.021 7.021 0 001.198-.73l6.138 6.138a1.004 1.004 0 001.416 0 1 1 0 000-1.414l-6.142-6.142A6.95 6.95 0 0026 19c0-2.788-1.642-5.174-4-6.3V2a2 2 0 00-2-2H2a2 2 0 00-2 2v26a2 2 0 002 2zm17-6c-2.756 0-5-2.244-5-5s2.244-5 5-5 5 2.244 5 5-2.244 5-5 5zM2 2h18v10H5.286C4.576 12 4 12.448 4 13s.576 1 1.286 1h8.826a6.963 6.963 0 00-2.012 4H5a1 1 0 000 2h7.1c.49 3.388 3.376 6 6.9 6 .342 0 .67-.054 1-.1V28H2V2zm3 6h12a1 1 0 000-2H5a1 1 0 000 2z"/></svg>