<svg width="32.238" height="32" xmlns="http://www.w3.org/2000/svg" fill="currentColor"><path d="M31.884 12.946a1.998 1.998 0 00-1.616-1.36l-8.62-1.252-3.854-7.812a2 2 0 00-3.588 0l-3.854 7.81-8.62 1.252a1.999 1.999 0 00-1.108 3.412l6.238 6.08-1.472 8.586A2.002 2.002 0 007.36 32c.318 0 .638-.076.93-.23L16 27.716l7.71 4.054a1.993 1.993 0 002.106-.152 2.002 2.002 0 00.796-1.956l-1.472-8.586 6.238-6.08a1.997 1.997 0 00.506-2.05zm-8.894 7.432L24.64 30 16 25.458V3.406l4.32 8.754 9.66 1.404-6.99 6.814z"/></svg>