<svg viewBox="0 0 32 32" xmlns="http://www.w3.org/2000/svg" fill="currentColor"><path d="M2 24.254h4.582c.362.36 8.702 7.38 8.702 7.38.434.264.812.366 1.142.366.05 0 .1-.002.148-.006.74-.07 1.268-.69 1.426-1.344V1.352C17.844.696 17.314.076 16.574.006A1.759 1.759 0 0016.426 0c-.33 0-.708.102-1.142.364 0 0-8.34 7.276-8.702 7.636H2a2 2 0 00-2 2v12.254a2 2 0 002 2zM2 22V10h4.582a2.06 2.06 0 001.394-.566c.364-.346 4.884-4.3 8.024-7.04v27.23c-3.12-2.628-7.64-6.446-8.008-6.786a1.995 1.995 0 00-1.412-.582H2V22zm19.082-2.506a1.001 1.001 0 00.898 1.788c2.022-1.02 3.278-3.042 3.278-5.282s-1.256-4.262-3.278-5.282a1.001 1.001 0 00-.898 1.788c1.342.676 2.176 2.014 2.176 3.494s-.834 2.818-2.176 3.494zm-1.376 7.984a1 1 0 001.174.79C26.744 27.124 31 21.964 31 16S26.744 4.876 20.878 3.732a1.002 1.002 0 00-.382 1.964C25.424 6.656 29 10.99 29 16s-3.576 9.344-8.504 10.304a1.001 1.001 0 00-.79 1.174z"/></svg>