<svg width="32.07" height="33.58" xmlns="http://www.w3.org/2000/svg" fill="currentColor"><path d="M7.54 15.77a4.907 4.907 0 004.868 1.216L2.96 7.54c-.308-.308-.47-.754-.47-1.286 0-.88.46-2.004 1.07-2.614.8-.8 2.97-1.686 3.98-.682l9.446 9.448c.138-.462.208-.942.208-1.422a4.844 4.844 0 00-1.424-3.446L9.364 1.134C7.44-.79 3.616-.068 1.734 1.814.642 2.906-.036 4.598-.036 6.23c0 1.268.416 2.382 1.17 3.136L7.54 15.77zm16.92.46a4.907 4.907 0 00-4.868-1.216l9.448 9.448c.308.308.47.752.47 1.286 0 .88-.46 2.004-1.07 2.614-.8.8-2.97 1.686-3.98.682l-9.446-9.45a4.974 4.974 0 00-.208 1.422c0 1.304.506 2.526 1.424 3.446l6.404 6.404c1.924 1.924 5.748 1.202 7.63-.68 1.092-1.092 1.77-2.784 1.77-4.416 0-1.268-.416-2.382-1.17-3.136L24.46 16.23zM9.164 9.162c-.256.254-.396.594-.396.954s.14.698.394.952l11.768 11.77c.526.524 1.38.524 1.906 0 .256-.254.394-.594.394-.954s-.14-.698-.394-.952L11.068 9.162a1.35 1.35 0 00-1.904 0z"/></svg>