<svg viewBox="0 0 32 32" xmlns="http://www.w3.org/2000/svg" fill="currentColor"><path d="M20.584.006c-.364-.034-.79.054-1.292.358 0 0-8.34 7.276-8.702 7.636H6a2 2 0 00-2 2v12.254a2 2 0 002 2h4.59c.362.36 8.702 7.38 8.702 7.38.502.304.928.392 1.292.358.74-.07 1.26-.69 1.418-1.344.01-.064.01-29.234 0-29.296-.158-.656-.68-1.276-1.418-1.346zm4.498 19.488a1.001 1.001 0 00.898 1.788c2.022-1.02 3.278-3.042 3.278-5.282s-1.256-4.262-3.278-5.282a1.001 1.001 0 00-.898 1.788c1.342.676 2.176 2.014 2.176 3.494s-.834 2.818-2.176 3.494z"/></svg>