<svg xmlns="http://www.w3.org/2000/svg" viewBox="0 0 32 32" fill="currentColor"><path d="M2 30h18a2 2 0 002-2v-2.7a7.021 7.021 0 001.198-.73l6.138 6.138a1.004 1.004 0 001.416 0 1 1 0 000-1.414l-6.142-6.142A6.95 6.95 0 0026 19c0-2.788-1.642-5.174-4-6.3V2a2 2 0 00-2-2H2a2 2 0 00-2 2v26a2 2 0 002 2zm17-6c-2.756 0-5-2.244-5-5s2.244-5 5-5 5 2.244 5 5-2.244 5-5 5zM17 8H5a1 1 0 010-2h12a1 1 0 010 2zM5 12h12c.194 0 .364.07.516.164A6.985 6.985 0 0014.112 14H5a1 1 0 010-2zm0 6h7.1c-.046.33-.1.658-.1 1s.054.67.1 1H5a1 1 0 010-2z"/></svg>