<svg xmlns="http://www.w3.org/2000/svg" viewBox="0 0 32 32" fill="currentColor"><path d="M6 32h20a2 2 0 002-2V2a2 2 0 00-2-2H6a2 2 0 00-2 2v28a2 2 0 002 2zM6 2h20v28H6V2zm16 2H10a2 2 0 00-2 2v2a2 2 0 002 2h12a2 2 0 002-2V6a2 2 0 00-2-2zm0 4H10V6h12v2zM8 14a2 2 0 104 0 2 2 0 10-4 0zm0 6a2 2 0 104 0 2 2 0 10-4 0zm0 6a2 2 0 104 0 2 2 0 10-4 0zm6-12a2 2 0 104 0 2 2 0 10-4 0zm0 6a2 2 0 104 0 2 2 0 10-4 0zm0 6a2 2 0 104 0 2 2 0 10-4 0zm6-12a2 2 0 104 0 2 2 0 10-4 0zm0 6a2 2 0 104 0 2 2 0 10-4 0zm0 6a2 2 0 104 0 2 2 0 10-4 0z"/></svg>