<svg viewBox="0 0 32 32" xmlns="http://www.w3.org/2000/svg" fill="currentColor"><path d="M8.69 17.772a1.999 1.999 0 00.73 3.168c1.42.594 3.834.97 6.582 1.046L16 22v6c0 1.104.448 4 1 4s1-2.896 1-4v-6l-.002-.016c2.748-.074 5.162-.452 6.582-1.046a1.999 1.999 0 00.73-3.166c-.82-.93-2.252-1.444-3.31-1.712V5.7c1.046-.354 1.934-.798 2.636-1.316a2 2 0 00-.552-3.506C23.108.55 20.888 0 17 0c-4.11 0-6.38.634-7.166.906a2 2 0 00-.546 3.488c.712.534 1.622.986 2.71 1.342H12V16.06c-1.056.266-2.49.78-3.31 1.712zm3.932-13.936c-1.044-.342-1.722-.732-2.132-1.042C11.554 2.426 13.708 2 17 2c3.228 0 5.366.41 6.45.774-.424.312-1.096.694-2.092 1.032L20 4.266v13.35l1.508.382c1.106.28 1.942.688 2.3 1.096-.926.386-3.176.906-6.808.906s-5.882-.52-6.808-.906c.36-.408 1.196-.816 2.3-1.096L14 17.616V4.286l-1.378-.45z"/></svg>