<svg width="32.236" height="32" xmlns="http://www.w3.org/2000/svg" fill="currentColor"><path d="M31.884 12.946a2.004 2.004 0 00-1.614-1.362l-8.62-1.252-3.856-7.81a2 2 0 00-3.588 0l-3.854 7.81-8.62 1.252a1.999 1.999 0 00-1.108 3.412l6.238 6.08-1.472 8.586A2.002 2.002 0 007.36 32c.318 0 .638-.076.93-.23L16 27.716l7.71 4.054a1.993 1.993 0 002.106-.152 2.002 2.002 0 00.796-1.956l-1.472-8.586 6.238-6.08c.544-.53.74-1.326.506-2.05zm-8.894 7.432L24.64 30 16 25.458 7.36 30l1.65-9.622-6.99-6.814 9.66-1.404L16 3.406l4.32 8.754 9.66 1.404-6.99 6.814z"/></svg>