<svg viewBox="0 0 32 32" xmlns="http://www.w3.org/2000/svg" fill="currentColor"><path d="M16 0C9.384 0 4 5.384 4 12c0 3.868 1.88 7.52 5.032 9.77.048.034.098.066.148.096.732.43.804 1.816.788 2.07a2.652 2.652 0 00-.004.124V28c0 .752.42 1.438 1.09 1.78l4.036 2.062a2.001 2.001 0 001.812.006l4.084-2.062A1.998 1.998 0 0022.084 28v-3.916c0-1.974 1.206-2.626 1.218-2.632.16-.074.308-.17.442-.284A11.987 11.987 0 0028 12c0-6.616-5.384-12-12-12zm-4.036 24.062s0-.04.002-.062h8.124c0 .03-.008.052-.008.084V26h-8.118v-1.938zm4.036 6L11.966 28h8.118L16 30.062zm6.452-10.422s-1.34.63-2.004 2.36h-8.804c-.248-.692-.678-1.404-1.45-1.858A9.986 9.986 0 016 12C6 6.478 10.478 2 16 2s10 4.478 10 10a9.977 9.977 0 01-3.548 7.64zM17 4a1 1 0 000 2c2.25 0 5 2.046 5 5.094a1 1 0 002 0C24 6.532 20.438 4 17 4z"/></svg>