<svg width="33.148" height="33.004" xmlns="http://www.w3.org/2000/svg" fill="currentColor"><path d="M14.076 6.978c-2.118-2.114-4.778-2.292-6.628-.442-1.85 1.848-1.674 4.512.44 6.628l11.448 11.448a1 1 0 001.414-1.414L9.302 11.75c-1.026-1.026-1.68-2.562-.442-3.8 1.236-1.238 2.774-.582 3.8.444L25.388 21.12c3.65 3.654 4.56 5.338 2.386 7.514-2.2 2.198-4.532 1.654-8.044-1.856L5.59 12.634C3.306 10.35 1.706 6.62 4.708 3.62c3.564-3.564 7.634-.06 8.794 1.102l12.992 12.994a1 1 0 001.414-1.414L14.916 3.308C10.988-.62 6.534-1.04 3.292 2.206.016 5.48.37 10.24 4.176 14.048L18.318 28.19c1.202 1.202 3.776 3.774 6.736 3.774 1.33 0 2.74-.522 4.136-1.918 3.974-3.976.298-7.656-2.386-10.342L14.076 6.978z"/></svg>