<svg xmlns="http://www.w3.org/2000/svg" viewBox="0 0 32 32" fill="currentColor"><path d="M4 32h24c2.21 0 4-1.79 4-4v-2c0-.094-.022-.182-.028-.272.006-.102.028-.218.028-.312L30 4c-.124-1.958-1.79-4-4-4H6C3.79 0 2.124 2.042 2 4L0 25.416c0 .094.022.21.028.31-.006.092-.028.18-.028.274v2c0 2.21 1.79 4 4 4zm-2-4v-2c0-1.102.898-2 2-2h24c1.102 0 2 .898 2 2v2c0 1.102-.898 2-2 2H4c-1.102 0-2-.898-2-2zm24-1a1 1 0 102 0 1 1 0 10-2 0zm-3.792-.042a1 1 0 102 0 1 1 0 10-2 0zM5 28h14a1 1 0 000-2H5a1 1 0 000 2z"/></svg>