<svg viewBox="0 0 32 32" xmlns="http://www.w3.org/2000/svg" fill="currentColor"><path d="M.798 30.456c1.496 1.942 4.586 2.068 6.902.284a5.94 5.94 0 001.956-2.636c.208-.412.344-.996.344-1.664V11.494l18-3.402v7.892c0 2.784-2.13 3.424-2.884 3.566-.066.008-.13.024-.196.036l-.084.01.012.004a6.018 6.018 0 00-2.596 1.156c-2.316 1.784-2.982 4.804-1.486 6.746 1.496 1.942 4.586 2.07 6.902.286 1.172-.904 1.918-2.124 2.178-3.36.09-.3.154-.63.154-1.004V4.012c0-.122-.024-.226-.034-.342.004-.06.034-.128.034-.188v-2c0-1.104-.896-1.728-2-1.39L10 3.494C8.896 3.83 8 5 8 6.104v2c0 .028.014.048.016.074-.002.06-.016.112-.016.172v10.588c0 2.788-2.136 3.426-2.888 3.566-.038.006-.076.018-.116.024-.098.016-.162.022-.162.022l.022.01a6.037 6.037 0 00-2.572 1.15c-2.316 1.784-2.98 4.804-1.486 6.746z"/></svg>