<svg viewBox="0 0 32 32" xmlns="http://www.w3.org/2000/svg" fill="currentColor"><path d="M31.984 13.834C31.9 8.926 27.918 4.552 23 4.552c-2.844 0-5.35 1.488-7 3.672-1.65-2.184-4.156-3.672-7-3.672-4.918 0-8.9 4.374-8.984 9.282H0c0 .03.006.058.006.088 0 .022-.006.044-.006.068 0 .138.034.242.04.374C.48 26.872 15.874 32 15.874 32s15.62-5.122 16.082-17.616c.008-.14.044-.25.044-.394 0-.024-.006-.046-.006-.068 0-.032.006-.058.006-.088h-.016zm-2.026.476c-.354 9.6-11.316 14.48-14.08 15.558-2.74-1.08-13.502-5.938-13.84-15.596a2.883 2.883 0 00-.028-.292l.006-.112C2.084 9.902 5.282 6.552 9 6.552c2.052 0 4.022 1.048 5.404 2.878a2 2 0 003.192 0C18.978 7.6 20.948 6.552 23 6.552c3.718 0 6.916 3.35 6.984 7.316 0 .038.002.076.006.114a3.379 3.379 0 00-.032.328z"/></svg>