<svg viewBox="0 0 32 32" xmlns="http://www.w3.org/2000/svg" fill="currentColor"><path d="M27.91 11.79c.176.792.278 1.606.278 2.442 0 6.456-5.48 11.838-12.696 12.994 1.526.616 3.236.976 5.058.976 1.718 0 3.34-.316 4.804-.866 1.854.632 3.878.796 5.552.796A14.237 14.237 0 0129 25.164c1.856-1.656 3-3.85 3-6.266 0-2.856-1.594-5.402-4.09-7.108zm-2.722 2.442C25.188 8.582 19.55 4 12.594 4S0 8.582 0 14.232c0 2.948 1.542 5.596 3.998 7.464a15.646 15.646 0 01-2.57 4.344c2.516 0 5.756-.33 8.25-1.862.938.182 1.912.288 2.916.288 6.956-.002 12.594-4.582 12.594-10.234z"/></svg>