<svg viewBox="0 0 32 32" xmlns="http://www.w3.org/2000/svg" fill="currentColor"><path d="M26 24c.236 0 .47.052.694.136.262.098.51.24.72.45l3.986 3.986c.374-.782.6-1.648.6-2.572 0-3.176-2.474-5.748-5.596-5.96-.136-.008-.266-.04-.404-.04-.732 0-1.426.15-2.074.39L11.61 8.074C11.85 7.426 12 6.732 12 6c0-.138-.032-.268-.04-.404C11.748 2.474 9.176 0 6 0c-.924 0-1.79.226-2.572.6l3.986 3.986c.21.21.354.458.45.72.262.71.12 1.536-.45 2.108C7.024 7.804 6.512 8 6 8c-.236 0-.47-.052-.694-.136a1.984 1.984 0 01-.72-.45L.6 3.428A5.937 5.937 0 000 6c0 3.176 2.474 5.748 5.596 5.96.136.008.266.04.404.04.732 0 1.426-.15 2.074-.39L20.39 23.926A5.951 5.951 0 0020 26c0 .138.032.268.04.404C20.252 29.526 22.824 32 26 32c.924 0 1.79-.226 2.572-.6l-3.986-3.986a1.957 1.957 0 01-.45-.72 1.996 1.996 0 01.45-2.108c.39-.39.902-.586 1.414-.586z"/></svg>