<svg xmlns="http://www.w3.org/2000/svg" viewBox="0 0 32 32" fill="currentColor"><path d="M30.118 21.638c-5.446 5.444-14.308 5.448-19.754 0-2.636-2.634-4.086-6.142-4.086-9.878s1.452-7.244 4.084-9.876A1 1 0 008.948.47c-3.012 3.01-4.67 7.02-4.67 11.29s1.66 8.282 4.67 11.292c2.542 2.544 5.738 4.03 9.052 4.496V30h-3a1 1 0 000 2h8a1 1 0 000-2h-3v-2.288c.08.002.16.012.24.012a15.92 15.92 0 0011.292-4.67 1 1 0 00-1.414-1.416zM20.24 0C13.744 0 8.48 5.266 8.48 11.76s5.266 11.76 11.76 11.76S32 18.256 32 11.76 26.734 0 20.24 0zm0 21.52c-5.382 0-9.76-4.378-9.76-9.76S14.858 2 20.24 2 30 6.378 30 11.76s-4.378 9.76-9.76 9.76z"/></svg>