<svg xmlns="http://www.w3.org/2000/svg" viewBox="0 0 32 32" fill="currentColor"><path d="M4 4v18l.296.74L8 32l4-10-.01-.004c.006-.006.004-.016.01-.022V4c0-2.21-1.79-4-4-4S4 1.79 4 4zm2 0c0-1.102.898-2 2-2s2 .898 2 2v2H6V4zm2 22.614L6.97 24.04l-.4-1-.03-.074 1.46-.73 1.46.73-.03.076-.4 1L8 26.614zM25.184 5.958l-1.89-4.834-.018.004C23.182.494 22.66 0 22 0c-.652 0-1.186.502-1.292 1.13l-.02-.004-1.872 4.832L18 8v20c0 2.21 1.79 4 4 4s4-1.79 4-4a2 2 0 002-2v-6a2 2 0 00-2-2V8l-.816-2.042zm-1.858.744L23.846 8h-3.692l.52-1.298.28-.702L22 3.386 23.046 6l.28.702z"/></svg>