<svg viewBox="0 0 32 32" xmlns="http://www.w3.org/2000/svg" fill="currentColor"><path d="M29.058 0h-.054c-.016 0-.03-.002-.046 0H18.384c-.306.016-1.002.494-1.092.584L4.562 13.312c-.78.78-.78 2.044 0 2.824l1.588 1.588-1.588 1.588c-.78.78-.78 2.044 0 2.824l9.292 9.292c.39.39.9.584 1.412.584s1.022-.194 1.412-.584l12.728-12.73c.092-.09.594-.706.594-1.09V.994A.93.93 0 0029.058 0zM27 1.992a1 1 0 110 2 1 1 0 010-2zm.994 15.294L15.27 30.016l-9.292-9.288 1.588-1.588 6.29 6.29c.39.39.9.584 1.412.584s1.022-.194 1.412-.584L28 14.108v3.162c-.006.01-.01.016-.006.016-.002 0-.002 0 0 0z"/></svg>