<svg viewBox="0 0 32 32" xmlns="http://www.w3.org/2000/svg" fill="currentColor"><path d="M2 24.254h4.59c.362.36 8.702 7.38 8.702 7.38.502.304.928.392 1.292.358.74-.07 1.26-.69 1.418-1.344.008-.064.008-29.232-.002-29.296-.156-.656-.678-1.276-1.416-1.346-.364-.034-.79.054-1.292.358 0 0-8.34 7.276-8.702 7.636H2a2 2 0 00-2 2v12.254a2 2 0 002 2zm19.082-4.76a1.001 1.001 0 00.898 1.788c2.022-1.02 3.278-3.042 3.278-5.282s-1.256-4.262-3.278-5.282a1.001 1.001 0 00-.898 1.788c1.342.676 2.176 2.014 2.176 3.494s-.834 2.818-2.176 3.494zm-1.376 7.984a1 1 0 001.174.79C26.744 27.124 31 21.964 31 16S26.744 4.876 20.878 3.732a1 1 0 00-.382 1.964C25.424 6.656 29 10.99 29 16s-3.576 9.344-8.504 10.304a1.001 1.001 0 00-.79 1.174z"/></svg>