<svg xmlns="http://www.w3.org/2000/svg" viewBox="0 0 32 32" fill="currentColor"><path d="M26 10.652V2h.986C27.546 2 28 1.552 28 1s-.454-1-1.014-1H7.014C6.454 0 6 .448 6 1s.454 1 1.014 1H8v8.652c0 .57.244 1.114.67 1.494L12.994 16 8.67 19.854c-.426.38-.67.924-.67 1.494V30h-.986C6.454 30 6 30.448 6 31s.454 1 1.014 1h19.974c.558 0 1.012-.448 1.012-1s-.454-1-1.014-1H26v-8.652c0-.57-.244-1.114-.67-1.494L21.006 16l4.324-3.854c.426-.38.67-.924.67-1.494zm-2 0L18 16l6 5.348V30H10v-8.652L16 16l-6-5.348V2h14v8.652zm-2-2.896V6H12v1.756l5 4.456zM12 24.252V28h10v-3.748L19.474 22h-4.948z"/></svg>