<svg viewBox="0 0 32 32" xmlns="http://www.w3.org/2000/svg" fill="currentColor"><path d="M27 14H11a1 1 0 000 2h16a1 1 0 000-2zm0-8H11a1 1 0 000 2h16a1 1 0 000-2zm0 16H11a1 1 0 000 2h16a1 1 0 000-2zM6.96 9.466V4.534h-.57l-1.078.576.13.508.858-.462h.014v4.31zm-1.586 7.082l-.522.508v.41H8v-.554H5.784v-.014l.394-.364c1.04-1.002 1.7-1.738 1.7-2.648 0-.706-.448-1.434-1.51-1.434-.57 0-1.054.212-1.396.502l.212.47c.228-.19.6-.418 1.048-.418.736 0 .978.462.978.964-.006.742-.576 1.38-1.836 2.578zm.82 8.38a2.25 2.25 0 01-1.092-.31l-.182.516c.242.16.728.334 1.282.334 1.184 0 1.798-.69 1.798-1.48 0-.69-.494-1.146-1.1-1.268v-.014c.608-.22.91-.652.91-1.162 0-.6-.44-1.176-1.412-1.176-.532 0-1.032.19-1.29.38l.174.486c.212-.152.592-.326.986-.326.614 0 .866.35.866.744 0 .584-.614.834-1.1.834h-.372v.5h.372c.646 0 1.268.296 1.274.986.01.41-.256.956-1.114.956z"/></svg>