<svg viewBox="0 0 32 32" xmlns="http://www.w3.org/2000/svg" fill="currentColor"><path d="M16 0C7.164 0 0 7.164 0 16s7.164 16 16 16 16-7.164 16-16S24.836 0 16 0zm8.026 15.708c-.124 2.052-1.05 5.124-4.756 8.114a.948.948 0 01-.594.212.951.951 0 01-.766-.39 1.031 1.031 0 01.172-1.412c3.018-2.434 3.844-4.818 3.99-6.454-.426.248-.908.4-1.43.4-1.628 0-2.946-1.37-2.946-3.06s1.318-3.06 2.946-3.06c.368 0 .706.096 1.028.226l-.012-.024s.142.052.34.162c.01.006.02.008.03.012l.016.012c.136.078.292.182.466.33.074.064.136.138.204.208.726.722 1.522 2.1 1.312 4.724zm-13.082.47c-1.628 0-2.946-1.37-2.946-3.06s1.32-3.06 2.946-3.06c.368 0 .706.096 1.028.226l-.01-.024s.142.052.34.162c.01.006.02.008.03.012l.016.012c.136.078.292.182.466.33.074.064.136.138.204.208.726.722 1.524 2.1 1.312 4.726-.124 2.052-1.05 5.124-4.756 8.114a.948.948 0 01-.594.212.951.951 0 01-.766-.39 1.031 1.031 0 01.172-1.412c3.018-2.434 3.844-4.818 3.99-6.454-.428.244-.91.398-1.432.398z"/></svg>