<svg xmlns="http://www.w3.org/2000/svg" width="32.022" height="32" fill="currentColor"><path d="M25.89 10.004c.056-.836.09-1.514.108-1.92A1.998 1.998 0 0024 6H2A2.002 2.002 0 00.002 8.084c.11 2.642.854 15.996 4.664 19.406A2 2 0 006 28h14a2 2 0 001.334-.51c1.194-1.07 2.088-3.116 2.754-5.504l1.754-.006c3.402 0 6.16-2.48 6.16-5.99-.002-4.766-4.122-5.968-6.112-5.986zm-.05 8.976l-.634.002c-.12 0-.272 0-.42.002.398-2.05.67-4.152.854-5.984h.2c.528 0 3.16.144 3.16 2.99 0 2.054-1.638 2.99-3.16 2.99z"/></svg>