<svg viewBox="0 0 32 32" xmlns="http://www.w3.org/2000/svg" fill="currentColor"><path d="M26.052 15.998c-.086 0-.17 0-.252.002.132-.658.2-1.33.2-2 0-5.514-4.486-10-10-10-5.51 0-10 4.442-10.006 9.898l.016.202C2.584 14.59 0 17.556 0 21c0 3.492 2.516 6.496 6 7h5a1 1 0 000-2l-4.854.01C3.822 25.668 2 23.466 2 21c0-2.456 1.844-4.57 4.292-4.92l.86-.124a1 1 0 00.858-.99l-.016-1.064C8 9.544 11.59 6 16 6c4.412 0 8 3.588 8 8 0 .542-.054 1.088-.164 1.618l-.264 1.272c-.066.318.028.646.248.884.22.236.536.358.864.308.022-.002.648-.084 1.368-.084C28.23 17.998 30 19.792 30 22c0 2.206-1.794 4-4 4h-7c-2.8 0-2.99-1.678-3-2v-6.636l2.366 2.364a1 1 0 001.414-1.414l-4.024-4.022a1.002 1.002 0 00-.712-.292c-.016 0-.028-.008-.044-.008a.987.987 0 00-.724.318l-4.028 4.024a1 1 0 001.414 1.414L14 17.412V24c0 1.382 1.044 4 5 4h7c3.308 0 6-2.692 6-6s-2.668-6.002-5.948-6.002z"/></svg>