<svg xmlns="http://www.w3.org/2000/svg" viewBox="0 0 32 32" fill="currentColor"><path d="M15.45 31.922a1.986 1.986 0 001.1 0c12.378-3.536 14.2-16.048 13.436-22.172A2.003 2.003 0 0028 8c-.286-.022-2-.318-2-4 0-.53-.21-1.04-.586-1.414C24.982 2.154 22.5 0 16 0S7.018 2.154 6.586 2.586A1.995 1.995 0 006 4c0 3.682-1.714 3.978-2.058 4.002-1.008 0-1.802.75-1.928 1.75-.764 6.122 1.06 18.634 13.436 22.17zM4 10s4 0 4-6c0 0 2-2 8-2v14h11.778C26.99 20.982 24.346 27.616 16 30V16H4.222C3.69 12.624 4 10 4 10z"/></svg>