<svg viewBox="0 0 32 32" xmlns="http://www.w3.org/2000/svg" fill="currentColor"><path d="M16 0C7.164 0 0 7.164 0 16s7.164 16 16 16 16-7.164 16-16S24.836 0 16 0zm0 30C8.28 30 2 23.72 2 16S8.28 2 16 2s14 6.28 14 14-6.28 14-14 14zm-3.186-19.224a3.07 3.07 0 00-.466-.33c-.006-.004-.01-.01-.016-.012-.01-.006-.02-.008-.03-.012-.198-.11-.34-.162-.34-.162l.01.024a2.686 2.686 0 00-1.028-.226c-1.628 0-2.946 1.37-2.946 3.06s1.32 3.06 2.946 3.06c.522 0 1.004-.152 1.43-.4-.146 1.636-.97 4.022-3.99 6.454-.422.342-.5.974-.172 1.412.192.256.478.39.766.39a.937.937 0 00.594-.212c3.706-2.99 4.632-6.062 4.756-8.114.212-2.624-.584-4.004-1.312-4.724-.066-.07-.128-.146-.202-.208zm9.696 0a3.07 3.07 0 00-.466-.33l-.016-.012c-.01-.006-.02-.008-.03-.012-.198-.108-.34-.162-.34-.162l.01.024a2.695 2.695 0 00-1.028-.226c-1.628 0-2.946 1.37-2.946 3.06s1.318 3.06 2.946 3.06c.522 0 1.004-.152 1.43-.4-.146 1.636-.97 4.022-3.99 6.454-.424.342-.5.974-.172 1.412.192.256.478.39.766.39a.937.937 0 00.594-.212c3.706-2.99 4.632-6.062 4.756-8.114.212-2.624-.586-4.004-1.312-4.724-.066-.07-.128-.146-.202-.208z"/></svg>