<svg viewBox="0 0 32 32" xmlns="http://www.w3.org/2000/svg" fill="currentColor"><path d="M26 0H6a6 6 0 00-6 6v20a6 6 0 006 6h20a6 6 0 006-6V6a6 6 0 00-6-6zM16 11.712c-.788 0-1.43.642-1.43 1.43v5.718a4.293 4.293 0 01-4.288 4.288 4.293 4.293 0 01-4.288-4.288V16h2.858v2.858c0 .788.642 1.43 1.43 1.43.788 0 1.43-.642 1.43-1.43v-5.716c0-2.364 1.924-4.288 4.288-4.288s4.288 1.924 4.288 3.976v1.386l-1.832.534-1.028-.536v-1.386c0-.474-.642-1.116-1.428-1.116zm10.004 7.146c0 2.364-1.924 4.288-4.288 4.288s-4.288-1.924-4.288-4.602v-2.768l1.028.536 1.832-.536v2.77c0 1.1.642 1.742 1.43 1.742s1.43-.642 1.43-1.43V16h2.858v2.858z"/></svg>