<svg viewBox="0 0 32 32" xmlns="http://www.w3.org/2000/svg" fill="currentColor"><path d="M15.444 12.674a65.366 65.366 0 00-3.792-5.916 10.263 10.263 0 00-5.664 7.162c.458.006 4.672.024 9.456-1.246zM26 0H6a6 6 0 00-6 6v20a6 6 0 006 6h20a6 6 0 006-6V6a6 6 0 00-6-6zM16 27.974C9.398 27.974 4.026 22.602 4.026 16S9.398 4.026 16 4.026 27.974 9.398 27.974 16 22.602 27.974 16 27.974zm.714-11.87c.134-.042.268-.084.402-.12a33.516 33.516 0 00-.828-1.736c-5.108 1.528-10.066 1.464-10.514 1.454-.002.104-.004.208-.004.312a10.198 10.198 0 002.63 6.84c.232-.396 3.038-5.044 8.314-6.75zm1.49-2.524a31.848 31.848 0 01.898 2.01c3.404-.428 6.786.258 7.122.33a10.168 10.168 0 00-2.308-6.372c-.214.29-1.928 2.488-5.712 4.032zm-.458 4.118c-5.768 2.01-7.84 6.012-8.024 6.388A10.178 10.178 0 0016 26.244c1.418.002 2.77-.288 3.996-.812-.152-.898-.746-4.026-2.182-7.756-.024.006-.046.014-.068.022zm5.034-9.334A10.186 10.186 0 0016 5.786c-.824 0-1.628.098-2.396.284.282.38 2.14 2.91 3.816 5.988 3.638-1.362 5.176-3.432 5.36-3.694zm-3.052 8.838c1.338 3.676 1.882 6.67 1.986 7.292a10.25 10.25 0 004.384-6.856c-.348-.11-3.164-.95-6.37-.436z"/></svg>