<svg viewBox="0 0 32 32" xmlns="http://www.w3.org/2000/svg" fill="currentColor"><path d="M19.74 18.494h-7.48c-.686 0-1.246.562-1.246 1.246s.562 1.246 1.246 1.246h7.48c.686 0 1.246-.562 1.246-1.246s-.56-1.246-1.246-1.246zm-7.48-4.988H16a1.25 1.25 0 001.246-1.246A1.25 1.25 0 0016 11.014h-3.74a1.25 1.25 0 00-1.246 1.246 1.247 1.247 0 001.246 1.246zM16 0C7.164 0 0 7.164 0 16s7.164 16 16 16 16-7.164 16-16c0-8.838-7.164-16-16-16zm9.974 19.534c0 3.558-2.896 6.44-6.48 6.44h-6.982c-3.58 0-6.488-2.882-6.488-6.438v-7.068c.002-3.558 2.906-6.442 6.488-6.442h3.27c3.584 0 6.452 2.676 6.452 6.234.048.666.648 1.246 1.332 1.246h1.118c.716 0 1.29.752 1.29 1.462v4.566z"/></svg>