<svg viewBox="0 0 32 32" xmlns="http://www.w3.org/2000/svg" fill="currentColor"><path d="M16 0C7.164 0 0 7.164 0 16s7.164 16 16 16 16-7.164 16-16c0-8.838-7.164-16-16-16zm5.998 14.8H17.2l-.002 4.39c0 1.114-.014 1.756.104 2.072.118.314.41.64.73.828.426.256.91.382 1.456.382.972 0 1.546-.128 2.508-.76V24.6c-.82.386-1.534.61-2.2.766a9.412 9.412 0 01-2.156.234c-.878 0-1.396-.11-2.07-.332a5.047 5.047 0 01-1.726-.948c-.478-.41-.806-.848-.992-1.31-.184-.462-.276-1.132-.276-2.01v-6.732h-2.574v-2.72c.754-.244 1.598-.596 2.134-1.054a5.278 5.278 0 001.296-1.648c.324-.638.548-1.456.672-2.446H17.2v4.8h4.798v3.6z"/></svg>