<svg viewBox="0 0 32 32" xmlns="http://www.w3.org/2000/svg" fill="currentColor"><path d="M26 0H6a6 6 0 00-6 6v20a6 6 0 006 6h20a6 6 0 006-6V6a6 6 0 00-6-6zm-5.662 25.462a5.251 5.251 0 01-2.78-.794 8.993 8.993 0 01-1.604.148c-4.87 0-8.816-3.926-8.816-8.77 0-.47.038-.932.11-1.382a5.262 5.262 0 017.284-7.272c.46-.076.936-.116 1.42-.116 4.868 0 8.816 3.928 8.816 8.77 0 .404-.03.8-.082 1.19a5.26 5.26 0 01-4.348 8.226zm-5.49-11.104c-2.548-.62-1.154-2.8.91-2.768 2.004.032 3.022 2.148 3.93 2.038.91-.11 1.684-1.472.254-2.692-1.236-1.056-2.8-1.638-5.204-1.42-1.884.17-3.674 1.384-3.894 3.748-.218 2.366 2.586 3.568 4.806 3.898 1.556.228 3.676.982 2.402 2.438-1.17 1.338-3.386.51-3.968.146-.582-.366-1.238-1.676-2.33-1.604-1.094.074-1.632 1.508-.29 2.768 1.202 1.126 2.512 1.748 5.314 1.6 2.804-.146 5.316-2.62 4.332-4.95s-3.714-2.584-6.262-3.202z"/></svg>