<svg viewBox="0 0 32 32" xmlns="http://www.w3.org/2000/svg" fill="currentColor"><path d="M16 0C7.164 0 0 7.164 0 16s7.164 16 16 16 16-7.164 16-16c0-8.838-7.164-16-16-16zm.568 7.984a3.323 3.323 0 011.726-1.728A3.12 3.12 0 0119.564 6c.458 0 .88.084 1.27.256.39.17.732.404 1.026.7.296.294.53.638.7 1.028.172.39.258.812.258 1.27 0 .458-.086.88-.258 1.27-.17.39-.404.732-.7 1.028a3.373 3.373 0 01-1.026.7 3.14 3.14 0 01-1.27.256c-.456 0-.88-.086-1.27-.256a3.347 3.347 0 01-1.028-.7 3.376 3.376 0 01-.698-1.028 3.114 3.114 0 01-.258-1.27c0-.458.086-.88.258-1.27zm-5.066-.516a2.395 2.395 0 011.754-.726c.704 0 1.3.242 1.784.726.486.486.728 1.072.728 1.758 0 .704-.244 1.298-.73 1.784-.482.484-1.078.726-1.782.726a2.392 2.392 0 01-1.754-.728 2.426 2.426 0 01-.73-1.784c.002-.684.244-1.27.73-1.756zm-4.366.458c.37-.372.822-.558 1.354-.558.534 0 .98.186 1.342.558.36.37.54.812.54 1.326 0 .534-.182.984-.54 1.356a1.796 1.796 0 01-1.342.558c-.532 0-.984-.186-1.354-.556a1.846 1.846 0 01-.558-1.356c0-.514.186-.958.558-1.328zM24 26h-8.79v-4H9.704v-4H6.418v-3.638c0-.646-.016-1.194.432-1.64.446-.446.994-.67 1.64-.67.552 0 1.03.166 1.428.5.4.334.664.746.8 1.242.322-.38.704-.674 1.14-.886a3.22 3.22 0 011.398-.314c.78 0 1.46.234 2.042.7.58.466.966 1.052 1.156 1.754.4-.38.864-.686 1.4-.912a4.304 4.304 0 011.712-.342c.61 0 1.186.114 1.728.342.54.228 1.012.542 1.412.942.4.4.718.87.954 1.412.238.54.34 1.116.34 1.726V26z"/></svg>