<svg viewBox="0 0 32 32" xmlns="http://www.w3.org/2000/svg" fill="currentColor"><path d="M26 0H6a6 6 0 00-6 6v20a6 6 0 006 6h20a6 6 0 006-6V6a6 6 0 00-6-6zm-.496 11.646c-1.074 6.044-7.068 11.162-8.87 12.33-1.804 1.168-3.448-.468-4.046-1.706-.682-1.412-2.728-9.066-3.264-9.7-.536-.634-2.144.634-2.144.634l-.78-1.022s3.266-3.898 5.75-4.388c2.634-.518 2.63 4.046 3.264 6.578.614 2.45 1.024 3.852 1.56 3.852s1.56-1.366 2.68-3.46c1.124-2.096-.048-3.948-2.242-2.632.88-5.262 9.164-6.528 8.092-.486z"/></svg>