<svg viewBox="0 0 32 32" xmlns="http://www.w3.org/2000/svg" fill="currentColor"><path d="M16 0C7.164 0 0 7.164 0 16s7.164 16 16 16 16-7.164 16-16S24.836 0 16 0zM2.286 16c0-1.936.428-3.776 1.188-5.436l6.542 17.456C5.44 25.856 2.286 21.286 2.286 16zM16 29.358c-1.346 0-2.644-.192-3.874-.544l4.114-11.646 4.214 11.248c.028.066.062.128.098.186a14.002 14.002 0 01-4.552.756zm1.886-19.62c.826-.042 1.57-.126 1.57-.126.74-.086.652-1.142-.086-1.102 0 0-2.222.17-3.654.17-1.346 0-3.612-.17-3.612-.17-.74-.042-.826 1.058-.088 1.102 0 0 .7.084 1.438.126l2.136 5.702-3.002 8.766L7.596 9.738c.828-.042 1.57-.126 1.57-.126.738-.086.652-1.142-.086-1.102 0 0-2.222.17-3.654.17-.256 0-.56-.006-.882-.016C6.994 5.038 11.21 2.642 16 2.642c3.57 0 6.82 1.33 9.262 3.506-.06-.004-.116-.012-.178-.012-1.348 0-2.304 1.142-2.304 2.37 0 1.102.652 2.032 1.346 3.134.524.892 1.132 2.034 1.132 3.684 0 1.142-.45 2.47-1.042 4.32l-1.37 4.45-4.96-14.356zM29.714 16c0 4.928-2.742 9.23-6.82 11.542l4.19-11.794c.782-1.906 1.042-3.428 1.042-4.784 0-.492-.032-.948-.092-1.374a13.039 13.039 0 011.68 6.41z"/></svg>