<svg viewBox="0 0 32 32" xmlns="http://www.w3.org/2000/svg" fill="currentColor"><path d="M16 0C7.164 0 0 7.164 0 16s7.164 16 16 16 16-7.164 16-16c0-8.838-7.164-16-16-16zm7.96 12.408c.008.17.012.34.012.51 0 5.206-3.962 11.208-11.208 11.208-2.224 0-4.294-.652-6.038-1.77a7.905 7.905 0 005.832-1.63 3.946 3.946 0 01-3.68-2.736 3.939 3.939 0 001.78-.068 3.942 3.942 0 01-3.16-3.862v-.05a3.933 3.933 0 001.784.494 3.938 3.938 0 01-1.752-3.278c0-.722.194-1.398.532-1.98a11.18 11.18 0 008.12 4.116 3.94 3.94 0 016.714-3.592 7.94 7.94 0 002.502-.956 3.95 3.95 0 01-1.732 2.18 7.878 7.878 0 002.262-.62 7.962 7.962 0 01-1.968 2.034z"/></svg>