<svg viewBox="0 0 32 32" xmlns="http://www.w3.org/2000/svg" fill="currentColor"><path d="M16 0C7.164 0 0 7.164 0 16s7.164 16 16 16 16-7.164 16-16c0-8.838-7.164-16-16-16zm0 4c1.592 0 3.11.31 4.5.872v8.368l-8.542-8.542A12.019 12.019 0 0116 4zM4.35 18.888A12.047 12.047 0 014 16c0-4.534 2.512-8.478 6.222-10.52l3.768 3.77-9.64 9.638zM10 26.394a12.03 12.03 0 01-5.012-5.622L10 15.76v10.634zM16 28c-1.592 0-3.11-.31-4.5-.874V22h14.894A11.997 11.997 0 0116 28zm11.126-7.5H22V5.606c3.586 2.076 6 5.952 6 10.394 0 1.592-.31 3.11-.874 4.5z"/></svg>