<svg viewBox="0 0 32 32" xmlns="http://www.w3.org/2000/svg" fill="currentColor"><path d="M30.616 16.078c0-8.072-6.58-14.618-14.694-14.618-.806 0-1.598.066-2.366.192A8.73 8.73 0 008.768.23 8.766 8.766 0 000 9c0 1.762.518 3.4 1.412 4.774-.12.752-.182 1.52-.182 2.304 0 8.074 6.576 14.618 14.692 14.618.916 0 1.808-.09 2.674-.246a8.757 8.757 0 004.634 1.322 8.768 8.768 0 008.77-8.77c0-1.83-.56-3.532-1.522-4.94.088-.65.138-1.312.138-1.984zM17.296 26.85c-4.67.244-6.854-.79-8.856-2.668-2.236-2.098-1.338-4.49.484-4.612 1.82-.122 2.912 2.064 3.884 2.67.97.606 4.662 1.986 6.612-.244 2.124-2.426-1.412-3.682-4.004-4.062-3.7-.548-8.372-2.548-8.008-6.494.364-3.94 3.348-5.964 6.49-6.248 4.004-.364 6.612.606 8.674 2.366 2.384 2.034 1.094 4.306-.424 4.488-1.514.182-3.212-3.344-6.55-3.396-3.44-.054-5.764 3.58-1.518 4.612 4.248 1.032 8.796 1.456 10.436 5.338s-2.546 8.006-7.22 8.25z"/></svg>