<svg viewBox="0 0 32 32" xmlns="http://www.w3.org/2000/svg" fill="currentColor"><path d="M26 0H6a6 6 0 00-6 6v20a6 6 0 006 6h20a6 6 0 006-6V6a6 6 0 00-6-6zM3.68 16c0-1.74.384-3.392 1.068-4.882L10.624 26.8C6.514 24.854 3.68 20.75 3.68 16zM16 28c-1.21 0-2.376-.172-3.48-.488l3.856-10.074 3.628 9.716c.024.06.056.114.088.166-1.28.44-2.656.68-4.092.68zm1.694-17.626c.742-.038 1.41-.114 1.41-.114.666-.078.586-1.026-.078-.99 0 0-1.996.152-3.284.152-1.21 0-3.244-.152-3.244-.152-.662-.036-.74.952-.078.99 0 0 .628.076 1.292.112l1.92 5.124-2.944 7.878-4.238-13c.742-.038 1.41-.114 1.41-.114.664-.078.586-1.026-.078-.99 0 0-1.996.152-3.284.152-.23 0-.504-.006-.792-.014C7.91 6.152 11.696 4 16 4c3.208 0 6.128 1.196 8.32 3.15-.054-.004-.104-.01-.16-.01-1.212 0-2.07 1.026-2.07 2.13 0 .99.586 1.826 1.21 2.816.47.8.804 1.242.804 2.724 0 1.026-.404 2.22-.936 3.88l-1.23 3.998-4.244-12.314zm4.498 15.996l3.764-10.596c.702-1.712.936-3.08.936-4.298 0-.442-.028-.852-.082-1.234A11.703 11.703 0 0128.32 16c0 4.428-2.464 8.292-6.128 10.37z"/></svg>