<svg viewBox="0 0 32 32" xmlns="http://www.w3.org/2000/svg" fill="currentColor"><path d="M26 0H6a6 6 0 00-6 6v20a6 6 0 006 6h20a6 6 0 006-6V6a6 6 0 00-6-6zm-8.752 20.326c-1.17-.09-1.66-.67-2.576-1.228-.504 2.644-1.12 5.18-2.944 6.502-.564-3.994.826-6.994 1.472-10.18-1.1-1.854.132-5.58 2.452-4.662 2.854 1.13-2.474 6.886 1.104 7.604 3.734.752 5.26-6.48 2.944-8.832-3.348-3.396-9.74-.078-8.954 4.784.192 1.188 1.418 1.548.49 3.19-2.142-.474-2.782-2.164-2.7-4.416.132-3.686 3.312-6.266 6.502-6.624 4.034-.452 7.818 1.48 8.342 5.274.59 4.282-1.82 8.922-6.132 8.588z"/></svg>