<svg viewBox="0 0 32 32" xmlns="http://www.w3.org/2000/svg" fill="currentColor"><path d="M22.658 17.218a18.603 18.603 0 00-13.434-1.426c-.512.14-.814 1.014-.674 1.526a.962.962 0 001.182.674 16.701 16.701 0 014.386-.586c2.7 0 5.274.628 7.654 1.864a.949.949 0 00.442.108c.348 0 .682-.536.854-.864a.963.963 0 00-.41-1.296zM26 0H6a6 6 0 00-6 6v20a6 6 0 006 6h20a6 6 0 006-6V6a6 6 0 00-6-6zM16 28C9.372 28 4 22.628 4 16S9.372 4 16 4s12 5.372 12 12-5.372 12-12 12zm-1.884-17.67a22.7 22.7 0 00-5.462.666c-.59.146-.948.858-.802 1.446s.742.948 1.332.802c1.608-.398 3.268-.6 4.934-.6 3.196 0 6.258.718 9.1 2.136.158.078.324.116.49.116.404 0 .792-.338.986-.724a1.1 1.1 0 00-.494-1.474 22.393 22.393 0 00-10.084-2.368zm0 9.302a14.82 14.82 0 00-4.364.656c-.436.134-.678 1.058-.544 1.492a.823.823 0 001.032.544 13.116 13.116 0 0110.184 1.034c.126.07.262.102.398.102a.817.817 0 00.722-.428c.22-.398.076-1.362-.324-1.582a14.806 14.806 0 00-7.104-1.818z"/></svg>