<svg viewBox="0 0 32 32" xmlns="http://www.w3.org/2000/svg" fill="currentColor"><path d="M16 0C7.164 0 0 7.164 0 16s7.164 16 16 16 16-7.164 16-16c0-8.838-7.164-16-16-16zm-4.464 26.766c-3.542 0-6.53-1.442-6.53-3.746 0-2.338 2.726-4.596 6.268-4.594.386 0 .74-.01 1.106-.01-.484-.47-.868-1.048-.868-1.762 0-.424.136-.83.324-1.192-.192.014-.388.02-.59.02-2.91 0-4.858-2.07-4.858-4.636 0-2.51 2.69-4.676 5.55-4.676h6.38l-1.432 1.032h-2.022c1.342.516 2.056 2.08 2.056 3.684 0 1.346-.746 2.506-1.8 3.33-1.03.806-1.224 1.142-1.224 1.826 0 .584 1.104 1.576 1.68 1.984 1.686 1.192 2.23 2.3 2.23 4.146-.002 2.304-2.232 4.594-6.27 4.594zM28 14.038h-4v3.992h-1.998v-3.992H18V12h4.002V8H24v4h4v2.038zm-14.462 5.238a5.357 5.357 0 00-1.588-.254c-2.448-.026-4.64 1.492-4.64 3.318 0 1.862 1.768 3.412 4.216 3.412 3.442 0 4.64-1.456 4.64-3.316 0-.226-.028-.444-.078-.658-.268-1.056-1.222-1.58-2.55-2.502zm1.09-8.266c-.284-2.156-1.846-3.888-3.488-3.938-1.642-.048-2.744 1.602-2.46 3.762.284 2.158 1.846 3.948 3.49 3.996 1.64.05 2.744-1.66 2.458-3.82z"/></svg>