<svg viewBox="0 0 32 32" xmlns="http://www.w3.org/2000/svg" fill="currentColor"><path d="M10.296 24.336c0 1.462.154 2.58.46 3.35.308.77.856 1.498 1.652 2.182.792.68 1.752 1.21 2.876 1.58 1.126.368 1.986.552 3.45.552 1.288 0 2.486-.13 3.596-.388 1.108-.26 2.3-.636 3.666-1.278v-4.812c-1.602 1.054-2.56 1.268-4.18 1.268-.91 0-1.718-.212-2.428-.638-.534-.314-1.022-.858-1.218-1.38-.198-.526-.174-1.596-.174-3.454L18 14h7.998V8H18V0h-5.16c-.204 1.65-.58 3.012-1.122 4.078a8.771 8.771 0 01-2.16 2.748c-.892.762-2.298 1.348-3.554 1.756V14h4.294v10.336z"/></svg>