<svg viewBox="0 0 32 32" xmlns="http://www.w3.org/2000/svg" fill="currentColor"><path d="M16 0C7.178 0 0 7.178 0 16s7.178 16 16 16 16-7.178 16-16S24.822 0 16 0zm0 2.354c3.474 0 6.646 1.302 9.06 3.444-.246.35-2.302 3.114-7.162 4.936a73.005 73.005 0 00-5.1-8c1.028-.248 2.1-.38 3.202-.38zm-5.81 1.298c.36.494 2.802 3.878 5.066 7.904-6.392 1.698-12.022 1.674-12.634 1.666.886-4.242 3.744-7.766 7.568-9.57zM2.332 16.02c0-.14.002-.28.006-.418.598.014 7.222.098 14.046-1.944.392.766.764 1.544 1.108 2.32-.18.05-.36.104-.538.162-7.048 2.278-10.798 8.488-11.108 9.018a13.625 13.625 0 01-3.514-9.138zm13.666 13.666c-3.158 0-6.07-1.078-8.388-2.884.246-.502 3.014-5.848 10.722-8.534l.09-.03c1.92 4.986 2.712 9.164 2.916 10.364a13.565 13.565 0 01-5.34 1.084zm7.638-2.336c-.14-.832-.866-4.832-2.654-9.744 4.282-.686 8.044.436 8.512.584a13.697 13.697 0 01-5.858 9.16zm-3.49-11.898a43.02 43.02 0 00-1.2-2.686C24 10.704 26.29 7.768 26.578 7.378a13.587 13.587 0 013.084 8.514c-.45-.096-4.968-1.012-9.516-.44z"/></svg>