<svg viewBox="0 0 32 32" xmlns="http://www.w3.org/2000/svg" fill="currentColor"><path d="M16 0C7.164 0 0 7.164 0 16s7.164 16 16 16 16-7.164 16-16S24.836 0 16 0zm7.392 25.38a1.099 1.099 0 01-1.494.434 17.474 17.474 0 00-8.412-2.158c-1.762 0-3.502.262-5.168.778a1.097 1.097 0 01-1.374-.726c-.18-.58.144-1.81.726-1.99a19.7 19.7 0 0115.29 1.554c.532.292.726 1.576.432 2.108zm2.032-6.028c-.228.44-.676 1.154-1.14 1.154-.2 0-.402-.046-.59-.146a21.933 21.933 0 00-10.206-2.484c-1.982 0-3.95.262-5.85.782a1.282 1.282 0 01-1.576-.9c-.184-.684.218-1.85.902-2.036a24.804 24.804 0 0117.912 1.902c.628.326.874 1.1.548 1.728zm2.164-5.792c-.258.514-.774.966-1.314.966-.22 0-.442-.05-.652-.154a26.947 26.947 0 00-12.134-2.846c-2.22 0-4.432.27-6.578.8a1.464 1.464 0 01-1.774-1.07c-.196-.784.284-1.734 1.07-1.928a30.219 30.219 0 017.282-.888 29.87 29.87 0 0113.44 3.154 1.467 1.467 0 01.66 1.966z"/></svg>