<svg viewBox="0 0 32 32" xmlns="http://www.w3.org/2000/svg" fill="currentColor"><path d="M15.796 8.014c.776-.776 1.166-1.728 1.166-2.854 0-1.096-.39-2.034-1.166-2.81-.774-.774-1.73-1.162-2.856-1.162-1.092 0-2.03.388-2.806 1.162-.776.778-1.166 1.714-1.166 2.81 0 1.126.39 2.078 1.166 2.854.778.776 1.714 1.164 2.806 1.164 1.126 0 2.082-.388 2.856-1.164zm3.562.868c.472.472 1.02.844 1.644 1.118a5.04 5.04 0 002.032.41c.732 0 1.408-.138 2.032-.41a5.393 5.393 0 001.644-1.118 5.34 5.34 0 001.12-1.644c.274-.624.412-1.3.412-2.034 0-.73-.136-1.406-.412-2.032a5.305 5.305 0 00-1.12-1.644A5.276 5.276 0 0025.066.41 4.986 4.986 0 0023.034 0c-.728 0-1.408.136-2.032.41a5.3 5.3 0 00-2.762 2.764 4.994 4.994 0 00-.412 2.032c0 .732.138 1.408.412 2.034a5.42 5.42 0 001.118 1.642zM5.314 8.266c.854 0 1.568-.296 2.148-.89.578-.596.866-1.318.866-2.172 0-.822-.29-1.53-.866-2.122-.58-.594-1.294-.892-2.148-.892-.85 0-1.576.298-2.166.892-.596.592-.892 1.3-.892 2.122 0 .854.298 1.576.892 2.17.592.594 1.316.892 2.166.892zm22.746 6.256a7.007 7.007 0 00-2.26-1.508 7.06 7.06 0 00-2.766-.548c-.974 0-1.888.182-2.738.548a7.51 7.51 0 00-2.238 1.462c-.304-1.126-.922-2.06-1.85-2.808-.93-.746-2.018-1.12-3.268-1.12-.792 0-1.536.168-2.238.502a5.524 5.524 0 00-1.822 1.416A3.864 3.864 0 007.6 10.48c-.638-.534-1.4-.798-2.286-.798-1.034 0-1.91.358-2.624 1.072-.716.714-.69 1.592-.69 2.626v6.402h5.258v5.242h8.81V32h14.064V19.544c0-.974-.162-1.896-.544-2.762a7.305 7.305 0 00-1.528-2.26z"/></svg>