<svg viewBox="0 0 32 32" xmlns="http://www.w3.org/2000/svg" fill="currentColor"><path d="M8.572 29.102c5.3 0 8.228-3.008 8.228-6.032 0-2.424-.716-3.878-2.928-5.442-.756-.536-2.204-1.838-2.204-2.604 0-.898.256-1.34 1.608-2.396 1.384-1.082 2.364-2.604 2.364-4.372 0-2.106-.938-4.16-2.7-4.836h2.654l1.876-1.354H9.096c-3.752 0-7.284 2.844-7.284 6.138 0 3.366 2.558 6.084 6.378 6.084.266 0 .524-.006.776-.024-.248.474-.426 1.008-.426 1.564 0 .936.504 1.694 1.14 2.314-.48 0-.946.014-1.452.014C3.578 18.154 0 21.116 0 24.186c0 3.024 3.924 4.916 8.572 4.916zM9.4 13.434c-2.158-.064-4.208-2.414-4.58-5.246-.372-2.834 1.074-5.002 3.23-4.938 2.156.064 4.208 2.338 4.58 5.17.374 2.834-1.074 5.078-3.23 5.014zm-.286 5.502c.75.008 1.45.128 2.084.334 1.744 1.21 2.996 1.896 3.348 3.28.066.28.102.568.102.864 0 2.444-1.574 4.354-6.092 4.354-3.214 0-5.534-2.034-5.534-4.478 0-2.396 2.878-4.388 6.092-4.354zM26 8V2.066h-2V8h-6v2h6v6.066h2V10h6V8z"/></svg>