<svg viewBox="0 0 32 32" xmlns="http://www.w3.org/2000/svg" fill="currentColor"><path d="M16 0C7.164 0 0 7.164 0 16s7.164 16 16 16 16-7.164 16-16c0-8.838-7.164-16-16-16zm1.104 18.54l-2.53-4.562c1.096-.188 2.044-.236 2.866-.188l1.436 2.294 3.44-.834c-1.352-1.324-3.822-2.568-8.338-1.764-.1.018-.198.038-.294.056l2.792 5.17-10.054 2.762a4.96 4.96 0 01-.524-1.076c-.65-1.882-.116-3.814 1.236-5.348.818-.918 1.954-1.682 3.336-2.216l-.846-1.772c.752-.24 1.566-.42 2.43-.536l.888 1.646c.096-.016.192-.032.29-.046 2.674-.404 5.286-.428 7.696.138 2.458.484 4.714 1.558 5.754 2.764.21.242.368.494.476.752l-10.054 2.76zm-7.808-.136l3.44-.834-1.538-3.216c-1.964 1.052-2.212 2.634-1.902 4.05z"/></svg>