<?xml version="1.0" standalone="no"?>
<!DOCTYPE svg PUBLIC "-//W3C//DTD SVG 20010904//EN"
 "http://www.w3.org/TR/2001/REC-SVG-20010904/DTD/svg10.dtd">
<svg version="1.0" xmlns="http://www.w3.org/2000/svg"
 width="684.000000pt" height="684.000000pt" viewBox="0 0 684.000000 684.000000"
 preserveAspectRatio="xMidYMid meet">
<metadata>
Created by potrace 1.14, written by Peter Selinger 2001-2017
</metadata>
<g transform="translate(0.000000,684.000000) scale(0.100000,-0.100000)"
fill="#000000" stroke="none">
<path d="M3972 6779 c-56 -32 -106 -59 -111 -59 -5 0 -11 -4 -13 -8 -1 -4 -54
-37 -117 -72 -63 -36 -132 -76 -155 -89 -23 -13 -131 -75 -241 -139 -110 -63
-268 -155 -352 -203 -84 -49 -157 -89 -163 -89 -5 0 -10 -4 -10 -8 0 -4 -19
-18 -42 -30 -24 -12 -61 -33 -83 -47 -22 -13 -49 -29 -60 -34 -11 -5 -66 -36
-123 -70 -57 -34 -108 -61 -113 -61 -5 0 -9 -4 -9 -8 0 -4 -12 -13 -27 -20
-16 -6 -46 -22 -68 -35 -66 -39 -301 -175 -337 -195 -18 -11 -61 -36 -95 -56
-34 -20 -65 -36 -69 -36 -3 0 -14 -9 -23 -19 -15 -17 -18 -53 -19 -293 -21
-3185 -21 -3159 -8 -3169 13 -12 79 -53 86 -54 5 -1 97 -54 130 -75 15 -10
348 -202 428 -247 24 -13 69 -40 100 -59 31 -18 63 -34 70 -34 6 0 12 -4 12
-9 0 -5 10 -13 22 -17 12 -3 28 -13 36 -20 7 -8 20 -14 28 -14 8 0 14 -4 14
-9 0 -5 8 -11 18 -13 16 -5 17 75 17 1615 0 890 3 1621 8 1624 4 2 28 -9 53
-26 25 -17 47 -31 48 -31 2 0 128 -72 280 -160 153 -88 281 -160 287 -160 5 0
9 -4 9 -9 0 -5 8 -11 18 -14 17 -6 63 -32 155 -88 26 -16 49 -29 51 -29 2 0
34 -18 70 -40 36 -22 70 -40 76 -40 5 0 10 -4 10 -10 0 -5 4 -10 9 -10 6 0 36
-15 68 -34 l58 -34 -1 -664 c-1 -364 -2 -668 -3 -675 -1 -12 -17 -5 -86 36
-127 76 -277 161 -283 161 -5 0 -13 5 -20 12 -7 7 -36 26 -66 43 -30 16 -96
54 -147 83 -50 28 -96 52 -100 52 -5 0 -9 4 -9 9 0 5 -8 11 -17 15 -10 3 -32
13 -48 23 -96 57 -124 73 -128 73 -3 0 -5 -242 -5 -538 l-1 -538 52 -31 c29
-17 70 -41 92 -53 22 -13 54 -31 70 -41 17 -10 68 -40 115 -67 47 -27 102 -58
123 -70 20 -12 53 -31 73 -42 19 -11 105 -61 189 -110 157 -92 196 -114 275
-158 25 -14 57 -33 71 -43 l25 -18 200 116 c109 64 213 123 229 131 17 9 33
20 37 26 4 6 8 7 8 2 0 -5 8 -2 18 6 9 8 53 35 97 60 44 25 96 55 115 66 19
11 91 52 160 91 69 39 132 75 140 81 8 5 64 37 124 72 60 35 127 74 150 87 23
13 88 50 146 84 154 88 323 186 340 197 8 6 21 13 29 17 8 4 75 42 149 85 74
43 138 78 143 78 5 0 9 5 9 10 0 6 4 10 9 10 8 0 194 104 211 118 7 6 8 2672
0 2672 -3 0 -75 41 -159 90 -85 50 -158 90 -162 90 -5 0 -9 5 -9 11 0 5 -4 8
-9 4 -5 -3 -12 -1 -16 4 -3 5 -18 16 -33 24 -46 24 -106 59 -134 78 -14 11
-29 19 -33 19 -4 0 -31 14 -59 32 -51 31 -70 42 -161 92 -27 16 -54 32 -60 36
-5 4 -32 20 -60 36 -27 15 -63 36 -80 46 -16 10 -43 25 -60 33 -16 9 -43 24
-60 35 -16 10 -46 27 -65 38 -73 40 -110 62 -149 86 -22 15 -45 26 -51 26 -5
0 -10 5 -10 11 0 5 -4 8 -9 5 -5 -3 -14 1 -21 9 -7 8 -19 15 -26 15 -8 0 -14
5 -14 10 0 6 -4 10 -9 10 -5 0 -49 23 -98 51 -48 29 -106 62 -128 74 -22 13
-122 71 -223 129 -101 58 -188 106 -193 106 -5 0 -9 4 -9 9 0 5 -15 14 -32 21
-18 8 -40 19 -48 25 -8 7 -40 26 -71 43 l-56 31 -101 -60z m145 -1070 c21 -12
58 -33 83 -47 25 -14 62 -36 82 -49 21 -12 42 -23 48 -23 5 0 10 -4 10 -10 0
-5 4 -10 10 -10 5 0 55 -27 111 -60 55 -33 103 -60 105 -60 2 0 34 -18 70 -40
36 -22 70 -40 75 -40 5 0 9 -4 9 -10 0 -5 5 -10 10 -10 9 0 249 -135 320 -180
8 -5 61 -35 117 -67 57 -32 103 -60 103 -63 -1 -7 -89 -60 -101 -60 -5 0 -9
-4 -9 -10 0 -5 -3 -9 -7 -8 -5 1 -40 -16 -79 -39 -39 -23 -83 -47 -97 -54 -15
-7 -27 -16 -27 -21 0 -4 -5 -8 -10 -8 -6 0 -65 -32 -133 -71 -67 -40 -140 -82
-162 -94 -22 -13 -80 -46 -130 -75 -260 -151 -346 -200 -355 -200 -6 0 -10 -4
-10 -8 0 -4 -20 -18 -44 -29 l-44 -22 -162 95 c-89 52 -166 94 -171 94 -5 0
-9 5 -9 10 0 6 -6 10 -12 10 -7 0 -41 18 -76 40 -34 22 -65 40 -67 40 -3 0
-50 27 -106 60 -55 33 -102 60 -104 60 -2 0 -33 18 -69 40 -36 22 -70 40 -76
40 -5 0 -10 5 -10 10 0 6 -4 10 -10 10 -8 0 -138 72 -180 100 -8 6 -31 18 -50
28 -37 18 -65 40 -59 46 12 11 323 196 329 196 5 0 10 3 12 8 2 4 59 41 128
82 69 41 127 78 130 82 3 4 17 12 30 18 14 6 55 30 92 53 38 23 134 82 215
131 82 49 164 100 183 113 43 28 50 28 97 2z m1306 -1657 c0 -357 -3 -653 -7
-660 -3 -6 -39 -29 -79 -52 -39 -22 -79 -45 -87 -50 -68 -42 -192 -110 -199
-110 -5 0 -11 -4 -13 -8 -1 -5 -41 -29 -88 -55 -47 -26 -92 -52 -100 -57 -44
-29 -575 -331 -584 -333 -8 -1 -11 193 -12 641 l0 642 63 40 c35 22 66 40 68
40 2 0 46 26 97 58 51 32 100 61 108 65 8 4 27 15 42 25 25 16 122 74 163 98
25 14 45 26 266 159 231 139 211 127 250 149 19 10 36 22 39 25 9 11 65 40 69
35 2 -2 4 -296 4 -652z"/>
<path d="M1375 5242 c-27 -15 -51 -30 -53 -34 -2 -5 -8 -8 -13 -8 -5 0 -44
-20 -87 -43 -42 -24 -102 -57 -132 -74 -30 -17 -127 -70 -215 -118 -88 -48
-170 -94 -182 -102 -13 -7 -26 -14 -30 -15 -5 0 -25 -12 -45 -24 -21 -13 -40
-24 -43 -24 -3 0 -30 -15 -59 -34 l-53 -34 1 -1723 1 -1722 30 -19 c17 -11 79
-47 138 -81 59 -34 115 -66 125 -72 9 -5 60 -34 112 -64 52 -30 96 -58 98 -63
2 -4 10 -8 19 -8 8 0 27 -8 41 -19 23 -16 197 -117 342 -199 25 -14 78 -45
118 -69 41 -24 76 -43 78 -43 3 0 30 -16 61 -36 31 -19 65 -40 77 -45 12 -5
35 -18 51 -29 17 -10 41 -25 55 -33 86 -48 433 -248 460 -265 14 -9 27 -17 30
-17 5 0 48 -26 228 -132 41 -24 78 -43 83 -43 5 0 9 -3 9 -7 0 -8 47 -33 61
-33 4 0 8 238 8 529 l0 528 -232 134 c-127 74 -239 139 -249 144 -9 6 -68 39
-130 75 -62 36 -117 67 -123 69 -5 2 -12 7 -15 10 -3 3 -14 11 -25 17 -11 6
-125 71 -252 144 l-233 134 -2 1737 -3 1738 -50 -27z"/>
<path d="M6010 2106 c-19 -5 -58 -33 -86 -61 -56 -56 -79 -118 -71 -192 9 -76
62 -153 130 -190 43 -24 170 -24 212 -1 82 44 130 120 134 208 6 134 -91 240
-224 245 -33 1 -76 -3 -95 -9z m148 -49 c43 -16 89 -61 108 -105 20 -49 15
-122 -11 -166 l-22 -36 -14 28 c-7 15 -24 44 -36 64 -21 34 -21 38 -6 47 12 6
17 21 16 50 -1 61 -22 73 -123 74 -87 0 -80 12 -80 -133 l0 -130 38 0 c39 0
39 0 37 39 -4 76 28 79 63 6 20 -41 25 -45 57 -45 48 0 44 -14 -11 -40 -95
-44 -203 -9 -250 82 -78 150 74 323 234 265z m-45 -106 c5 -1 7 -11 5 -23 -2
-16 -11 -24 -29 -26 -23 -3 -26 0 -23 25 3 34 1 32 22 28 9 -2 21 -4 25 -4z"/>
</g>
</svg>
