<?xml version="1.0" standalone="no"?>
<!DOCTYPE svg PUBLIC "-//W3C//DTD SVG 20010904//EN"
 "http://www.w3.org/TR/2001/REC-SVG-20010904/DTD/svg10.dtd">
<svg version="1.0" xmlns="http://www.w3.org/2000/svg"
 width="700.000000pt" height="700.000000pt" viewBox="0 0 700.000000 700.000000"
 preserveAspectRatio="xMidYMid meet">
<metadata>
Created by potrace 1.11, written by Peter Selinger 2001-2013
</metadata>
<g transform="translate(0.000000,700.000000) scale(0.100000,-0.100000)"
fill="#000000" stroke="none">
<path d="M2563 5969 c-576 -51 -851 -259 -949 -719 -13 -60 -18 -179 -24 -585
-6 -436 -10 -519 -24 -569 -69 -237 -236 -340 -583 -362 l-113 -7 0 -228 0
-229 63 0 c90 0 261 -25 338 -49 119 -37 208 -112 263 -218 45 -88 49 -133 56
-678 8 -567 11 -604 74 -769 130 -341 448 -506 1031 -533 l145 -6 0 191 0 192
-47 0 c-27 0 -88 5 -138 10 -248 28 -388 106 -469 260 -67 126 -68 142 -75
760 l-7 555 -27 79 c-15 43 -41 97 -57 121 -90 130 -269 225 -522 275 -54 11
-58 13 -58 39 0 27 3 28 133 60 291 72 443 187 508 386 22 68 23 83 29 625 6
523 8 559 28 632 67 243 214 353 517 388 50 5 111 10 138 10 l47 0 0 190 0
190 -92 -1 c-51 -1 -134 -5 -185 -10z"/>
<path d="M4160 5792 l0 -192 48 0 c70 0 219 -18 287 -35 152 -38 272 -129 330
-251 55 -116 57 -143 64 -744 l7 -555 27 -79 c15 -43 41 -97 57 -121 81 -117
228 -202 448 -256 129 -32 132 -33 132 -60 0 -26 -4 -28 -57 -39 -257 -51
-433 -144 -524 -276 -16 -23 -41 -77 -56 -120 l-27 -79 -6 -555 c-6 -527 -8
-559 -28 -633 -65 -238 -220 -353 -517 -387 -49 -5 -111 -10 -137 -10 l-48 0
0 -192 0 -191 147 7 c657 29 971 236 1074 703 20 90 22 139 29 608 6 428 10
519 23 568 63 219 210 324 502 357 50 5 114 10 143 10 l52 0 0 228 0 229 -112
7 c-354 20 -524 124 -584 357 -14 54 -18 147 -24 584 -8 567 -11 604 -74 769
-131 344 -444 506 -1031 533 l-145 6 0 -191z"/>
</g>
</svg>
