<?xml version="1.0" encoding="utf-8"?>
<!-- Generator: Adobe Illustrator 23.1.0, SVG Export Plug-In . SVG Version: 6.00 Build 0)  -->
<svg version="1.1" id="Ebene_1" xmlns="http://www.w3.org/2000/svg" xmlns:xlink="http://www.w3.org/1999/xlink" x="0px" y="0px"
	 viewBox="0 0 70 70" style="enable-background:new 0 0 70 70;" xml:space="preserve">
<style type="text/css">
	.st0{fill:#FCE8E3;}
	.st1{fill:#212529;}
	.st2{fill:#C7917A;}
</style>
<rect x="-6.3" y="-7" class="st0" width="83.1" height="83.1"/>
<g>
	<path class="st1" d="M28.4,59.8V56c-5.6,0-7.3-2-7.3-6.6v-7.7c0-3.2-1.2-5.5-6.7-6.4v-0.6c5.5-0.9,6.7-3.2,6.7-6.4v-7.7
		c0-4.5,1.7-6.6,7.3-6.6v-3.8c-9.4,0-12.5,3.3-12.5,10.4v6.2c0,4.2-1.9,5.9-7.2,5.9v4.6c5.4,0,7.2,1.6,7.2,5.9v6.2
		C15.8,56.5,18.9,59.8,28.4,59.8z"/>
	<path class="st1" d="M41.6,10.2V14c5.6,0,7.3,2,7.3,6.6v7.7c0,3.2,1.2,5.5,6.7,6.4v0.6c-5.5,0.9-6.7,3.2-6.7,6.4v7.7
		c0,4.5-1.7,6.6-7.3,6.6v3.8c9.4,0,12.5-3.3,12.5-10.4v-6.2c0-4.2,1.9-5.9,7.2-5.9v-4.6c-5.4,0-7.2-1.6-7.2-5.9v-6.2
		C54.2,13.5,51.1,10.2,41.6,10.2"/>
	<path class="st2" d="M26.2,36.7c1.2,0,2.1-0.9,2.1-2.1c0-1.2-0.9-2.1-2.1-2.1c-1.2,0-2.1,0.9-2.1,2.1
		C24.1,35.8,25.1,36.7,26.2,36.7"/>
	<path class="st2" d="M34.1,36.7c1.2,0,2.1-0.9,2.1-2.1c0-1.2-0.9-2.1-2.1-2.1c-1.2,0-2.1,0.9-2.1,2.1C32,35.8,32.9,36.7,34.1,36.7"
		/>
	<path class="st2" d="M41.9,36.7c1.2,0,2.1-0.9,2.1-2.1c0-1.2-0.9-2.1-2.1-2.1c-1.2,0-2.1,0.9-2.1,2.1
		C39.8,35.8,40.7,36.7,41.9,36.7"/>
</g>
</svg>
